<svg width="115" height="33" viewBox="0 0 115 33" fill="none" xmlns="http://www.w3.org/2000/svg">
<path fill-rule="evenodd" clip-rule="evenodd" d="M28.7122 29.4572C28.6972 29.4572 28.6817 29.4572 28.6668 29.4572C33.1066 24.714 34.5369 19.1744 32.9577 12.8384C31.4429 8.02427 28.4084 4.53554 23.8537 2.37219C20.0534 0.731375 16.1636 0.489221 12.1842 1.64568C6.84479 3.45845 3.23497 7.02287 1.35468 12.3389C-0.0607351 17.1048 0.438738 21.6606 2.8531 26.0063C3.69167 27.3795 4.68307 28.6357 5.82723 29.7751C2.54901 26.9584 0.634349 23.3864 0.0832947 19.0591C-0.473254 12.6294 1.75921 7.41523 6.78077 3.41654C11.49 0.0485047 16.6361 -0.829387 22.219 0.782957C27.1792 2.44384 30.7287 5.66013 32.8669 10.4319C34.8993 15.5841 34.5964 20.594 31.9587 25.4614C31.0824 26.9547 30.0003 28.2866 28.7122 29.4572Z" fill="#242021"/>
<path fill-rule="evenodd" clip-rule="evenodd" d="M13.0469 27.3685C13.0541 27.4457 13.0466 27.5213 13.0242 27.5955C12.9939 27.6561 12.9636 27.6561 12.9333 27.5955C12.917 27.7338 12.8868 27.7489 12.8425 27.6409C12.8274 27.6864 12.8122 27.7318 12.7971 27.7772C12.782 27.762 12.7668 27.7469 12.7517 27.7318C12.7012 27.789 12.6936 27.842 12.729 27.8907C12.6989 27.9596 12.6535 28.0126 12.5928 28.0496C12.3955 27.4337 12.2972 26.798 12.2976 26.1425C12.4098 25.9717 12.4325 25.7901 12.3658 25.5977C11.9898 25.44 11.6266 25.2583 11.276 25.0528C11.1828 24.9171 11.1298 24.7658 11.1171 24.5987C11.0793 23.9927 11.0868 23.3873 11.1398 22.7824C11.4648 22.6275 11.7826 22.4611 12.0933 22.283C12.1084 22.2981 12.1236 22.3133 12.1387 22.3284C11.9169 23.0237 11.8336 23.7351 11.889 24.4625C12.0679 24.6011 12.2571 24.7221 12.4566 24.8257C12.4593 24.8504 12.4744 24.8655 12.502 24.8711C12.5465 24.7537 12.5616 24.6326 12.5474 24.5079C12.5874 23.6 12.5949 22.6919 12.5701 21.7835C11.2947 22.4477 10.0157 23.1061 8.73323 23.7587C7.4806 24.6234 6.23191 25.4937 4.98718 26.3696C5.47349 25.6579 5.99566 24.9617 6.55371 24.2809C6.10042 24.5399 5.65393 24.8426 5.21422 25.189C5.20663 25.1739 5.1991 25.1587 5.19151 25.1436C5.85854 24.021 6.52447 22.901 7.1894 21.7835C7.44182 21.4597 7.64615 21.1117 7.80239 20.7391C7.54121 21.0653 7.29148 21.3984 7.05318 21.7381C6.53782 22.3371 6.04593 22.9576 5.57747 23.5998C6.35197 21.8569 7.27522 20.1466 8.34727 18.4688C9.25054 17.0807 10.3479 15.8622 11.6392 14.8136C13.1712 13.6572 14.8967 13.1426 16.8156 13.2698C17.2137 13.3629 17.577 13.5294 17.9054 13.7692C18.0265 13.7995 18.1475 13.7995 18.2686 13.7692C18.8001 13.1583 18.9894 12.4545 18.8362 11.6578C18.6901 11.2842 18.4555 10.9739 18.1324 10.727C17.4503 10.3628 16.8979 9.85577 16.4751 9.20587C16.3417 8.93379 16.2131 8.66135 16.0891 8.38855C15.7641 8.81256 15.4841 9.26662 15.2491 9.75075C15.215 9.52044 15.2301 9.29341 15.2945 9.06965C15.4253 8.71797 15.5766 8.38501 15.7485 8.0707C15.2084 8.65095 14.7695 9.30177 14.4318 10.0232C14.6966 8.58684 15.3625 7.31545 16.4296 6.20903C16.7115 5.48452 17.2034 4.96235 17.9054 4.6425C18.4523 4.50034 18.967 4.57603 19.4492 4.86954C19.6741 5.0187 19.886 5.1852 20.0849 5.36901C21.6658 5.35003 23.2397 5.44084 24.8072 5.64145C24.8221 5.65657 24.8376 5.67174 24.8526 5.68686C23.7923 5.87938 22.733 6.07613 21.6741 6.27714C20.6318 6.48828 19.648 6.85153 18.7227 7.3669C17.7494 8.01889 17.7646 8.65459 18.7681 9.27398C19.2592 9.4967 19.7283 9.75402 20.1757 10.0459C20.5194 10.3775 20.7389 10.7786 20.8341 11.2492C20.9951 13.5959 20.3896 15.7149 19.0178 17.6061C18.2504 18.4949 17.3499 19.2138 16.3161 19.7629C15.6813 20.0879 15.0305 20.3755 14.3636 20.6256C14.1593 20.8602 13.955 21.0948 13.7507 21.3294C13.5155 22.6278 13.3187 23.9295 13.1604 25.2344C14.4659 25.9591 15.7752 26.6781 17.088 27.3912C18.2052 27.6318 19.1436 28.1767 19.9033 29.0258C19.8881 29.0334 19.873 29.041 19.8578 29.0486C19.4466 28.6908 18.9926 28.3957 18.4956 28.1631C18.4502 28.1328 18.4048 28.1328 18.3594 28.1631C18.9743 28.5059 19.4662 28.9675 19.8351 29.548C19.3469 29.0139 18.7717 28.6052 18.1097 28.322C17.9326 28.5396 17.7661 28.7667 17.6102 29.0031C17.6215 28.7266 17.6896 28.4617 17.8145 28.2085C17.808 28.1735 17.7928 28.1432 17.7691 28.1177C16.2047 27.3771 14.6381 26.643 13.0696 25.9155C13.0054 26.1597 12.9675 26.4094 12.956 26.6647C13.0008 26.8974 13.0311 27.132 13.0469 27.3685Z" fill="#231F20"/>
<path fill-rule="evenodd" clip-rule="evenodd" d="M15.0903 13.8827C15.4859 13.8713 15.8795 13.894 16.2709 13.9509C14.384 14.2285 12.7493 15.0155 11.367 16.312C10.4017 17.2392 9.51625 18.2306 8.71069 19.2861C9.36142 17.7984 10.3074 16.5195 11.5486 15.4493C12.5826 14.5916 13.7632 14.0695 15.0903 13.8827Z" fill="#F5F5F5"/>
<path fill-rule="evenodd" clip-rule="evenodd" d="M14.7724 16.7888C13.5841 18.4959 12.01 19.7597 10.0501 20.5802C9.76686 20.7 9.4793 20.7908 9.18738 20.8527C11.3095 19.8525 13.1712 18.4979 14.7724 16.7888Z" fill="#EFEEEE"/>
<path fill-rule="evenodd" clip-rule="evenodd" d="M13.0469 19.4223C13.0318 19.4223 13.0166 19.4223 13.0015 19.4223C14.5402 18.3755 15.8495 17.089 16.9291 15.5628C16.0102 17.2158 14.7161 18.5023 13.0469 19.4223Z" fill="#E0E0E0"/>
<path fill-rule="evenodd" clip-rule="evenodd" d="M13.0015 19.4223C13.0167 19.4223 13.0318 19.4223 13.0469 19.4223C12.9817 19.478 12.906 19.5234 12.8199 19.5586C12.7656 19.5428 12.7656 19.5201 12.8199 19.4904C12.8764 19.4545 12.937 19.4318 13.0015 19.4223Z" fill="#7E7D7E"/>
<path fill-rule="evenodd" clip-rule="evenodd" d="M7.18944 21.7835C7.14899 21.7558 7.10358 21.7407 7.05322 21.7381C7.29152 21.3984 7.54125 21.0654 7.80243 20.7392C7.64619 21.1117 7.44186 21.4598 7.18944 21.7835Z" fill="#E1E0E0"/>
<path fill-rule="evenodd" clip-rule="evenodd" d="M24.3986 24.3717C24.5166 24.5923 24.6224 24.8193 24.7164 25.0528C24.0081 26.3454 23.554 27.7227 23.3542 29.1848C23.3102 29.0891 23.2952 28.9831 23.3088 28.8669C23.3292 28.4726 23.3592 28.0791 23.3996 27.6863C23.5576 26.3004 23.7166 24.908 23.8764 23.5089C24.0517 23.7994 24.2256 24.087 24.3986 24.3717Z" fill="#F6F6F6"/>
<path fill-rule="evenodd" clip-rule="evenodd" d="M12.5475 24.5079C12.5617 24.6327 12.5466 24.7538 12.5021 24.8712C12.4745 24.8655 12.4594 24.8504 12.4567 24.8258C12.487 24.7198 12.5172 24.6139 12.5475 24.5079Z" fill="#9D9B9C"/>
<path fill-rule="evenodd" clip-rule="evenodd" d="M23.1726 27.5501C23.129 27.8488 23.114 28.1515 23.1272 28.4583C23.0967 28.5794 23.0668 28.7004 23.0363 28.8215C22.9789 28.3946 22.8729 27.9859 22.7185 27.5955C22.6734 27.377 22.6053 27.1651 22.5142 26.9598C22.4839 26.8841 22.4839 26.8085 22.5142 26.7328C22.7378 26.3308 22.9951 25.9524 23.2861 25.5976C23.2243 26.2455 23.1866 26.8964 23.1726 27.5501Z" fill="#F8F8F8"/>
<path fill-rule="evenodd" clip-rule="evenodd" d="M21.8557 31.4551C21.8277 31.4501 21.805 31.4351 21.7876 31.4097C21.7638 30.9288 21.726 30.9288 21.6741 31.4097C21.6438 31.3339 21.6136 31.2585 21.5833 31.1827C21.597 31.0664 21.5818 30.9606 21.5379 30.8648C21.4932 30.6773 21.478 30.4803 21.4925 30.2745C21.5366 29.4951 21.6879 28.7383 21.9465 28.0042C21.9713 27.9092 22.0091 27.8183 22.0601 27.7318C22.3743 28.5118 22.5786 29.3215 22.673 30.161C22.6411 30.3964 22.6033 30.631 22.5595 30.8648C22.5255 30.6868 22.4649 30.5204 22.3779 30.3653C22.3305 30.6664 22.3002 30.9688 22.2871 31.2735C22.2411 30.9824 22.1806 30.695 22.1055 30.4107C22.0552 30.65 22.025 30.8921 22.0146 31.1372C21.9695 30.9125 21.9392 30.6855 21.9238 30.4561C21.8626 30.7858 21.8399 31.1186 21.8557 31.4551Z" fill="#F6F5F6"/>
<path fill-rule="evenodd" clip-rule="evenodd" d="M8.50621 28.3674C8.47593 28.3674 8.46081 28.3826 8.46081 28.4129C8.38952 28.3504 8.35169 28.2748 8.34729 28.1858C8.40977 28.2405 8.46271 28.3011 8.50621 28.3674Z" fill="#949394"/>
<path fill-rule="evenodd" clip-rule="evenodd" d="M7.9613 28.7307C7.9613 28.7004 7.94618 28.6853 7.91589 28.6853C7.94627 28.4729 7.98409 28.261 8.02941 28.0496C8.05447 28.2869 8.03177 28.5139 7.9613 28.7307Z" fill="#7A7879"/>
<path fill-rule="evenodd" clip-rule="evenodd" d="M28.0765 30.774C28.107 30.8798 28.1369 30.9861 28.1674 31.0919C28.1542 31.1731 28.1696 31.2485 28.2128 31.3189C28.2968 31.1164 28.3422 30.9048 28.349 30.6832C28.3794 30.789 28.4094 30.8952 28.4398 31.001C28.4321 31.1681 28.4398 31.3348 28.4625 31.5005C28.5097 31.3071 28.5479 31.1105 28.576 30.9102C28.6201 30.9965 28.635 31.0873 28.6214 31.1827C28.6155 31.2226 28.6305 31.2526 28.6668 31.2735C28.7109 31.1872 28.7259 31.0964 28.7122 31.001C28.6977 30.8317 28.7127 30.6655 28.7576 30.5016C28.784 30.7926 28.8217 31.0805 28.8712 31.3643C28.9016 31.3339 28.9316 31.3039 28.962 31.2735C28.977 31.1068 28.9924 30.9407 29.0074 30.774C29.0396 30.7073 29.0927 30.6768 29.1663 30.6832C29.1604 30.7808 29.1831 30.8716 29.2344 30.9556C29.2471 30.7268 29.3075 30.6964 29.416 30.8648C29.4506 31.061 29.481 31.2576 29.5069 31.4551C29.5168 31.3697 29.5468 31.2939 29.5977 31.2281C29.6195 31.2712 29.6272 31.3166 29.6204 31.3643C29.6036 31.496 29.6263 31.6168 29.6885 31.7275C29.7107 31.6535 29.7185 31.5777 29.7112 31.5005C29.7189 31.2272 29.7416 30.9547 29.7793 30.6832C29.8315 30.8289 29.8619 30.9802 29.8701 31.1373C29.9191 30.9942 29.9795 30.858 30.0517 30.7286C30.0962 30.7994 30.1339 30.8753 30.1653 30.9556C30.2642 30.8576 30.3251 30.7363 30.3469 30.5924C30.3796 30.7091 30.4327 30.8149 30.5058 30.9102C30.5417 30.8539 30.5644 30.7931 30.5739 30.7286C30.6043 30.8344 30.6343 30.9407 30.6647 31.0464C30.6502 31.2158 30.6652 31.382 30.7101 31.5459C30.7846 31.4356 30.8377 31.3148 30.8691 31.1827C30.9149 31.1445 30.968 31.1295 31.028 31.1373C31.0203 31.3044 31.028 31.471 31.0507 31.6367C31.1052 31.4451 31.1356 31.2485 31.1415 31.0464C31.1792 31.001 31.2173 30.9556 31.255 30.9102C31.2854 31.001 31.3154 31.0919 31.3458 31.1827C31.3835 31.001 31.4217 30.8194 31.4593 30.6378C31.5356 30.9543 31.6037 31.2721 31.6637 31.5913C31.7286 31.5314 31.774 31.4556 31.7999 31.3643C31.8603 31.4247 31.9211 31.4247 31.9815 31.3643C32.0119 31.5155 32.0419 31.6672 32.0723 31.8184C32.1023 31.5741 32.14 31.3321 32.1858 31.0919C32.3498 31.2167 32.4406 31.3829 32.4583 31.5913C32.4982 31.3112 32.5664 31.0387 32.6626 30.774C32.9736 30.9933 33.1249 31.2962 33.1167 31.6821C33.1167 31.7425 33.1167 31.8034 33.1167 31.8638C26.2753 31.8638 19.4342 31.8638 12.5929 31.8638C12.6541 31.8324 12.7071 31.787 12.7518 31.7275C12.7669 31.758 12.7821 31.7879 12.7972 31.8184C13.1342 31.7811 13.4747 31.7584 13.8189 31.7502C13.7735 31.7353 13.7281 31.7198 13.6827 31.7048C13.7168 31.6744 13.732 31.6367 13.7281 31.5913C13.7281 31.5155 13.7281 31.4401 13.7281 31.3643C13.7575 31.4551 13.7953 31.5459 13.8416 31.6367C13.8502 31.5364 13.873 31.4456 13.9097 31.3643C13.9097 31.4247 13.9097 31.4855 13.9097 31.5459C13.9115 31.595 13.9266 31.6404 13.9551 31.6821C13.9248 31.6971 13.8946 31.7126 13.8643 31.7275C13.8783 31.7643 13.901 31.7943 13.9324 31.8184C17.3058 31.8256 20.6886 31.8179 24.0808 31.7957C20.8115 31.7807 17.5422 31.7652 14.2729 31.7502C16.7098 31.7353 19.1466 31.7198 21.5834 31.7048C21.7418 31.6903 21.8326 31.6068 21.8558 31.4551C21.84 31.1186 21.8627 30.7858 21.924 30.4562C21.9393 30.6855 21.9696 30.9125 22.0148 31.1373C22.0251 30.8921 22.0554 30.65 22.1056 30.4108C22.1807 30.695 22.2413 30.9824 22.2872 31.2735C22.3003 30.9688 22.3306 30.6664 22.378 30.3653C22.4651 30.5204 22.5256 30.6868 22.5596 30.8648C22.6034 30.631 22.6412 30.3965 22.6732 30.161C22.5787 29.3215 22.3744 28.5118 22.0602 27.7318C22.0092 27.8184 21.9714 27.9092 21.9467 28.0042C21.8729 27.9978 21.82 28.0281 21.7877 28.095C21.7418 28.057 21.6888 28.0419 21.6288 28.0496C21.6169 27.9825 21.632 27.922 21.6742 27.868C21.7515 27.8821 21.8271 27.8594 21.9012 27.7999C21.8558 27.7848 21.8104 27.7696 21.765 27.7545C21.8206 27.5924 21.8963 27.441 21.9921 27.3004C21.8862 27.1737 21.8938 27.045 22.0148 26.9144C22.0622 26.9654 22.0924 27.026 22.1056 27.0961C22.1626 27.1201 22.2307 27.1201 22.3099 27.0961C22.3413 27.1199 22.364 27.1502 22.378 27.1869C22.4195 27.1345 22.4573 27.1421 22.4915 27.2096C22.4764 27.2247 22.4612 27.2399 22.4461 27.255C22.4915 27.2928 22.5369 27.3307 22.5823 27.3685C22.5187 27.4294 22.5338 27.4673 22.6278 27.482C22.5774 27.5644 22.6077 27.6022 22.7186 27.5955C22.873 27.986 22.9789 28.3946 23.0364 28.8215C23.0242 28.9091 23.0469 28.9848 23.1045 29.0486C23.1272 28.8524 23.1349 28.6556 23.1272 28.4583C23.1141 28.1515 23.129 27.8488 23.1726 27.5501C23.2135 27.5003 23.2512 27.5003 23.2861 27.5501C23.3011 27.5047 23.3166 27.4593 23.3316 27.4139C23.3829 27.4977 23.4056 27.5885 23.3997 27.6864C23.3593 28.0791 23.3293 28.4726 23.3089 28.8669C23.2221 29.2675 23.1917 29.6762 23.218 30.0929C23.258 29.7883 23.3034 29.4856 23.3543 29.1848C23.554 27.7227 24.0081 26.3454 24.7165 25.0528C24.6225 24.8193 24.5167 24.5923 24.3986 24.3717C24.503 24.4006 24.6016 24.4461 24.6938 24.5079C24.7414 24.4617 24.7946 24.4541 24.8527 24.4852C24.9049 24.6492 24.9807 24.6719 25.0797 24.5533C25.5202 23.9303 26.05 23.4309 26.6689 23.0549C26.144 23.6555 25.69 24.3064 25.3067 25.0074C26.0287 26.1356 26.5055 27.3616 26.7371 28.6853C26.8506 25.7418 27.2061 22.8282 27.8041 19.9445C27.5803 19.5915 27.4368 19.2055 27.3727 18.7867C27.1898 17.3736 27.3714 16.0114 27.9176 14.7001C28.1392 14.1909 28.4498 13.7444 28.8485 13.3606C29.2176 13.0449 29.5128 13.0979 29.7339 13.5195C29.8047 13.8488 29.8197 14.1818 29.7793 14.5184C29.5541 16.3098 29.0546 18.0201 28.2809 19.6494C28.1061 19.8388 28.0152 20.0658 28.0084 20.3305C27.6288 23.4119 27.2429 26.492 26.8506 29.5707C26.8583 29.654 26.8656 29.7372 26.8733 29.8205C27.0372 28.1825 27.4763 26.6236 28.1901 25.1436C28.6373 24.2723 29.2503 23.5382 30.029 22.9414C30.0994 22.8828 30.1752 22.8526 30.2561 22.8506C28.715 24.7303 27.8295 26.8871 27.5998 29.321C27.5462 30.1223 27.5235 30.9243 27.5317 31.7275C27.5771 31.7275 27.6225 31.7275 27.6679 31.7275C27.6584 31.4224 27.6811 31.1196 27.736 30.8194C27.7746 30.7459 27.82 30.7304 27.8722 30.774C27.9558 30.9116 28.0012 31.0632 28.0084 31.2281C28.0461 31.0787 28.0688 30.927 28.0765 30.774Z" fill="#242021"/>
<path fill-rule="evenodd" clip-rule="evenodd" d="M23.1271 28.4583C23.1348 28.6556 23.1271 28.8524 23.1044 29.0486C23.0467 28.9848 23.024 28.9091 23.0363 28.8215C23.0667 28.7004 23.0967 28.5794 23.1271 28.4583Z" fill="#949293"/>
<path fill-rule="evenodd" clip-rule="evenodd" d="M26.4418 30.8194C26.4559 30.9652 26.4409 31.1014 26.3964 31.2281C26.3201 31.0405 26.2897 30.8439 26.3056 30.6378C26.3115 30.5978 26.2965 30.5679 26.2602 30.547C26.2157 30.68 26.2003 30.8162 26.2148 30.9556C26.2416 31.1858 26.1962 31.3979 26.0786 31.5913C26.0345 31.505 26.0196 31.4142 26.0332 31.3189C26.0472 31.209 26.0318 31.1027 25.9878 31.001C25.9601 31.0065 25.9451 31.0219 25.9424 31.0464C25.9569 31.1486 25.9342 31.2394 25.8743 31.3189C25.8665 31.1504 25.8438 30.9838 25.8061 30.8194C25.7725 31.0473 25.7344 31.2744 25.6926 31.5005C25.6726 31.3593 25.6118 31.2381 25.511 31.1373C25.496 31.016 25.4806 30.8952 25.4656 30.774C25.3425 30.7191 25.2667 30.7645 25.2386 30.9102C25.2308 30.8099 25.2004 30.7191 25.1477 30.6378C25.1259 30.8208 25.0955 31.0024 25.0569 31.1827C25.0524 30.9352 25.022 30.6932 24.9661 30.4562C24.9357 30.6378 24.9057 30.8194 24.8753 31.001C24.8694 30.799 24.839 30.6024 24.7845 30.4107C24.7482 30.6827 24.7177 30.9552 24.6937 31.2281C24.6633 31.1373 24.6333 31.0464 24.6029 30.9556C24.567 31.1477 24.5066 31.3293 24.4212 31.5005C24.394 31.1749 24.3332 30.8571 24.2396 30.547C24.211 30.804 24.1883 31.0614 24.1715 31.3189C24.1411 31.3793 24.1111 31.4401 24.0807 31.5005C24.0503 31.3947 24.0203 31.2885 23.9899 31.1827C23.9031 30.8621 23.8727 30.5293 23.8991 30.1837C23.8991 30.0005 23.9145 29.8189 23.9445 29.6388C24.0076 29.4223 24.038 29.1953 24.0353 28.9577C24.1847 27.801 24.5098 26.696 25.0115 25.6431C25.8157 27.2767 26.2924 29.0022 26.4418 30.8194Z" fill="#FAFAFA"/>
<path fill-rule="evenodd" clip-rule="evenodd" d="M24.0353 28.9577C24.038 29.1953 24.0076 29.4223 23.9445 29.6388C23.9418 29.4013 23.9722 29.1743 24.0353 28.9577Z" fill="#B4B2B3"/>
<path fill-rule="evenodd" clip-rule="evenodd" d="M7.91591 28.6853C7.9462 28.6853 7.96132 28.7004 7.96132 28.7307C7.90924 29.275 7.86383 29.8199 7.8251 30.3653C7.78065 30.2234 7.76548 30.0721 7.77969 29.9113C7.79531 29.4992 7.84072 29.0905 7.91591 28.6853Z" fill="#353334"/>
<path fill-rule="evenodd" clip-rule="evenodd" d="M21.7197 24.4171C21.6566 24.6336 21.6263 24.8607 21.6288 25.0982C21.8296 25.5602 22.0566 26.0143 22.3099 26.4604C22.5833 26.0886 22.9087 25.7708 23.2862 25.5068C23.3924 24.7264 23.5059 23.9469 23.6267 23.1684C23.4914 22.853 23.3098 22.5654 23.0819 22.3057C23.1123 22.2754 23.1422 22.2754 23.1727 22.3057C23.3148 22.4933 23.4737 22.6674 23.6494 22.8279C23.7838 22.0374 23.9355 21.2503 24.1035 20.4667C24.0472 21.3602 23.9868 22.2531 23.9219 23.1457C24.3096 23.6213 24.6956 24.0905 25.0797 24.5533C24.9808 24.6719 24.9049 24.6492 24.8527 24.4852C24.7946 24.4541 24.7415 24.4617 24.6938 24.5079C24.6016 24.4461 24.5031 24.4006 24.3986 24.3717C24.2256 24.087 24.0517 23.7994 23.8765 23.5089C23.7166 24.908 23.5577 26.3005 23.3997 27.6864C23.4056 27.5885 23.3829 27.4977 23.3316 27.4139C23.3166 27.4593 23.3012 27.5047 23.2862 27.5501C23.2512 27.5003 23.2135 27.5003 23.1727 27.5501C23.1867 26.8964 23.2244 26.2455 23.2862 25.5977C22.9952 25.9525 22.7379 26.3308 22.5143 26.7328C22.484 26.8085 22.484 26.8842 22.5143 26.9599C22.6054 27.1651 22.6735 27.377 22.7186 27.5955C22.6077 27.6022 22.5774 27.5644 22.6278 27.482C22.5338 27.4673 22.5187 27.4294 22.5824 27.3685C22.537 27.3307 22.4916 27.2928 22.4462 27.255C22.4613 27.2399 22.4764 27.2247 22.4916 27.2096C22.4574 27.1421 22.4195 27.1345 22.378 27.1869C22.3641 27.1502 22.3414 27.1199 22.3099 27.0961C22.2307 27.1201 22.1626 27.1201 22.1056 27.0961C22.0924 27.026 22.0622 26.9654 22.0148 26.9144C21.8938 27.045 21.8862 27.1737 21.9921 27.3004C21.8963 27.441 21.8206 27.5924 21.7651 27.7545C21.8105 27.7696 21.8559 27.7848 21.9013 27.7999C21.8272 27.8594 21.7515 27.8821 21.6742 27.868C21.6321 27.922 21.6169 27.9825 21.6288 28.0496C21.6889 28.0419 21.7419 28.057 21.7878 28.095C21.82 28.0281 21.8729 27.9978 21.9467 28.0042C21.6881 28.7383 21.5367 29.4951 21.4926 30.2745C21.4402 30.5992 21.4326 30.9325 21.4699 31.2735C21.4817 31.1332 21.5044 30.997 21.538 30.8648C21.582 30.9606 21.5971 31.0664 21.5834 31.1827C21.5664 31.3143 21.5891 31.4351 21.6515 31.5459C21.6735 31.5028 21.681 31.4574 21.6742 31.4097C21.7261 30.9288 21.764 30.9288 21.7878 31.4097C21.8052 31.4351 21.8279 31.4501 21.8559 31.4551C21.8326 31.6068 21.7418 31.6903 21.5834 31.7048C19.1466 31.7198 16.7098 31.7353 14.273 31.7502C17.5422 31.7652 20.8115 31.7807 24.0808 31.7957C20.6886 31.8179 17.3058 31.8256 13.9324 31.8184C13.901 31.7943 13.8783 31.7643 13.8643 31.7275C13.8946 31.7126 13.9248 31.6971 13.9551 31.6821C13.9267 31.6404 13.9115 31.595 13.9097 31.5459C13.9782 31.6077 14.0085 31.585 14.0005 31.4778C13.9922 31.4151 13.9619 31.3775 13.9097 31.3643C13.873 31.4456 13.8503 31.5364 13.8416 31.6367C13.7953 31.5459 13.7575 31.4551 13.7281 31.3643C13.6759 31.3775 13.6456 31.4151 13.6373 31.4778C13.6456 31.5405 13.6759 31.5782 13.7281 31.5913C13.732 31.6367 13.7168 31.6744 13.6827 31.7048C13.7281 31.7198 13.7735 31.7353 13.8189 31.7502C13.4748 31.7584 13.1342 31.7811 12.7973 31.8184C12.7821 31.7879 12.767 31.758 12.7518 31.7275C12.7071 31.787 12.6541 31.8324 12.5929 31.8638C9.0058 31.8638 5.41868 31.8638 1.83156 31.8638C1.83156 31.7275 1.83156 31.5913 1.83156 31.4551C1.81716 31.3157 1.83228 31.1795 1.87696 31.0464C1.98985 31.1409 2.03525 31.2617 2.01318 31.4097C2.00324 31.4633 2.01836 31.5087 2.05859 31.5459C2.10282 31.4442 2.11798 31.338 2.104 31.2281C2.09405 31.1745 2.10917 31.1291 2.1494 31.0919C2.18537 31.2494 2.23077 31.4011 2.28562 31.5459C2.28835 31.5704 2.30347 31.5859 2.33103 31.5913C2.37571 31.4583 2.39083 31.3221 2.37644 31.1827C2.36895 31.0306 2.37653 30.8793 2.39914 30.7286C2.41426 30.7436 2.42943 30.759 2.44455 30.774C2.51316 31.0714 2.57373 31.3738 2.62617 31.6821C2.63444 31.5582 2.65714 31.4374 2.69428 31.3189C2.72457 31.3493 2.75481 31.3793 2.7851 31.4097C2.81538 31.2281 2.84562 31.0464 2.87591 30.8648C2.91482 30.9211 2.94506 30.9815 2.96672 31.0464C3.00418 31.0869 3.04959 31.1018 3.10294 31.0919C3.09759 30.8853 3.1884 30.7944 3.37538 30.8194C3.41688 30.9175 3.46987 31.0083 3.53431 31.0919C3.54348 31.0119 3.56618 30.9366 3.60242 30.8648C3.69173 30.9184 3.75226 30.888 3.78404 30.774C3.84988 30.9802 3.88771 31.1922 3.89756 31.4097C3.91459 31.1958 3.94487 30.9838 3.98837 30.774C4.07587 31.1173 4.14398 31.4655 4.1927 31.8184C4.23034 31.5777 4.25305 31.3352 4.26081 31.0919C4.30236 31.1295 4.3326 31.1749 4.35162 31.2281C4.37515 31.1136 4.43572 31.0228 4.53325 30.9556C4.58397 31.0215 4.61426 31.0973 4.62406 31.1827C4.66139 31.0787 4.69167 30.9729 4.71488 30.8648C4.77082 30.992 4.8011 31.1282 4.80569 31.2735C4.84351 31.3189 4.88138 31.3643 4.91921 31.4097C4.94949 31.2585 4.97973 31.1068 5.01002 30.9556C5.0547 31.0887 5.06982 31.2249 5.05543 31.3643C5.04249 31.4456 5.05761 31.5209 5.10083 31.5913C5.14565 31.4428 5.16077 31.2916 5.14624 31.1373C5.12799 30.621 5.17339 30.606 5.28246 31.0919C5.30512 30.9683 5.35806 30.8625 5.44138 30.774C5.61189 31.0696 5.77081 31.3725 5.91815 31.6821C5.96315 31.5028 5.97827 31.3212 5.96356 31.1373C5.99385 31.016 6.02409 30.8952 6.05437 30.774C6.10954 31.0378 6.18523 31.0528 6.28141 30.8194C6.34398 31.0419 6.38184 31.2689 6.39492 31.5005C6.45845 31.1831 6.51897 30.8653 6.57655 30.547C6.61424 30.7577 6.64452 30.9697 6.66736 31.1827C6.68875 31.1032 6.71903 31.0278 6.75817 30.9556C6.80108 31.1196 6.83137 31.2862 6.84899 31.4551C6.90992 31.5187 6.94779 31.5037 6.9625 31.4097C6.99152 31.2748 7.01422 31.1386 7.03061 31.001C7.07053 31.1518 7.1084 31.303 7.14413 31.4551C7.24784 31.4133 7.30083 31.4587 7.30305 31.5913C7.35504 31.3834 7.38529 31.1713 7.39387 30.9556C7.45458 31.1159 7.47728 31.2821 7.46198 31.4551C7.45203 31.5087 7.46715 31.5541 7.50738 31.5913C7.55206 31.4583 7.56718 31.3221 7.55279 31.1827C7.51833 30.2809 7.2156 29.4788 6.64466 28.7761C6.65224 28.761 6.65978 28.7458 6.66736 28.7307C7.17265 29.2267 7.5132 29.817 7.68901 30.5016C7.74818 30.9234 7.8087 30.9234 7.87064 30.5016C7.96713 29.8545 8.25469 29.3096 8.73336 28.8669C8.65939 28.7029 8.56858 28.5515 8.46092 28.4129C8.46092 28.3826 8.47604 28.3675 8.50633 28.3675C8.65758 28.5264 8.80138 28.6928 8.93769 28.8669C8.97361 28.6058 9.08713 28.3864 9.27824 28.2085C9.32133 28.1805 9.35916 28.1881 9.39176 28.2312C9.40334 28.5939 9.33523 28.942 9.18743 29.2756C9.41015 29.6259 9.56149 30.0043 9.64149 30.4108C9.63296 30.4835 9.65566 30.5442 9.7096 30.5924C9.73226 30.4114 9.73985 30.2298 9.73231 30.0475C9.77712 29.1365 9.89822 28.236 10.0956 27.3458C9.77549 26.4837 9.87389 25.6739 10.3907 24.9166C10.4745 24.8445 10.5653 24.7839 10.6631 24.7349C10.7534 24.7646 10.8139 24.8252 10.8448 24.9166C10.8583 25.3347 10.7978 25.7434 10.6631 26.1425C10.5226 26.6098 10.3561 27.0639 10.1637 27.5047C10.0396 28.4568 9.92606 29.4103 9.82312 30.3653C9.75265 30.5819 9.72995 30.809 9.75501 31.0464C9.78811 30.8326 9.82594 30.621 9.86853 30.4108C9.99685 29.5785 10.3828 28.8974 11.0264 28.3675C10.8894 28.5937 10.738 28.8207 10.5723 29.0486C10.3506 29.4566 10.1916 29.8879 10.0956 30.3426C10.1912 30.6909 10.2366 31.0469 10.2318 31.4097C10.225 31.4574 10.2326 31.5028 10.2545 31.5459C10.3177 31.4197 10.3404 31.2835 10.3226 31.1373C10.3334 30.9942 10.3712 30.858 10.4361 30.7286C10.4805 30.8303 10.5032 30.9361 10.5042 31.0464C10.5069 31.071 10.5221 31.0864 10.5496 31.0919C10.5941 30.9742 10.6092 30.8535 10.595 30.7286C10.5878 30.6514 10.5953 30.5756 10.6177 30.5016C10.7428 30.7295 10.8261 30.9715 10.8675 31.2281C10.8615 31.268 10.8766 31.298 10.9129 31.3189C10.9571 31.2172 10.9723 31.1109 10.9583 31.001C10.9583 30.9556 10.9583 30.9102 10.9583 30.8648C10.9886 30.9102 11.0188 30.9556 11.0491 31.001C11.0491 31.0464 11.0491 31.0919 11.0491 31.1373C11.0349 31.2621 11.05 31.3829 11.0945 31.5005C11.1347 31.4633 11.1499 31.4179 11.1399 31.3643C11.1254 31.2099 11.1405 31.0587 11.1853 30.9102C11.2156 31.0919 11.2458 31.2735 11.2761 31.4551C11.3208 31.3221 11.3359 31.1858 11.3215 31.0464C11.3518 31.001 11.3821 30.9556 11.4124 30.9102C11.4035 31.1109 11.4262 31.3075 11.4805 31.5005C11.5051 31.1218 11.5278 30.7436 11.5486 30.3653C11.594 30.3653 11.6394 30.3653 11.6848 30.3653C11.6526 30.6573 11.7055 30.9298 11.8437 31.1827C11.8522 31.0737 11.8749 30.9679 11.9118 30.8648C11.9449 30.9879 11.9827 31.1091 12.0253 31.2281C12.0401 30.9715 12.1007 30.7295 12.207 30.5016C12.2232 30.8507 12.2535 31.199 12.2978 31.5459C12.3444 31.3062 12.3747 31.0637 12.3886 30.8194C12.4076 30.7663 12.4379 30.7209 12.4794 30.6832C12.5269 30.9842 12.5571 31.2866 12.5702 31.5913C12.6051 31.2285 12.6354 30.8653 12.661 30.5016C12.6913 30.4713 12.7216 30.441 12.7518 30.4108C12.804 30.6546 12.8645 30.8971 12.9335 31.1373C12.9789 31.0464 13.0243 30.9556 13.0697 30.8648C13.1 30.6074 13.1 30.3502 13.0697 30.0929C12.8889 29.4154 12.73 28.7343 12.5929 28.0496C12.6536 28.0126 12.699 27.9596 12.7291 27.8907C12.6937 27.842 12.7013 27.789 12.7518 27.7318C12.767 27.7469 12.7821 27.7621 12.7973 27.7772C12.8124 27.7318 12.8275 27.6864 12.8427 27.641C12.8869 27.7489 12.9172 27.7338 12.9335 27.5955C12.9638 27.6561 12.994 27.6561 13.0243 27.5955C13.0467 27.5213 13.0543 27.4457 13.047 27.3685C13.2131 28.6044 13.3796 29.8455 13.5465 31.0919C13.607 31.0919 13.6676 31.0919 13.7281 31.0919C13.7061 30.853 13.7364 30.626 13.8189 30.4108C13.8492 30.5167 13.8794 30.6228 13.9097 30.7286C13.9097 30.8648 13.9097 31.001 13.9097 31.1373C14.0005 31.1223 14.0913 31.1068 14.1822 31.0919C14.1822 30.9706 14.1822 30.8498 14.1822 30.7286C14.2124 30.6378 14.2427 30.547 14.273 30.4562C14.2504 30.6223 14.3033 30.7586 14.4319 30.8648C14.4692 30.9688 14.4995 31.0746 14.5227 31.1827C14.7299 30.2647 14.8585 30.2798 14.9087 31.2281C14.9541 31.2281 14.9995 31.2281 15.0449 31.2281C15.0376 31.1509 15.0452 31.0751 15.0676 31.001C15.0922 31.0978 15.1301 31.1886 15.1811 31.2735C15.2114 31.0315 15.2416 30.789 15.2719 30.547C15.3309 30.5738 15.3687 30.6192 15.3854 30.6832C15.3804 30.8957 15.4258 31.0923 15.5217 31.2735C15.608 30.992 15.6685 30.7045 15.7033 30.4108C15.7221 30.39 15.7448 30.3748 15.7714 30.3653C15.8392 30.6796 15.8695 30.9974 15.8622 31.3189C15.8486 31.4142 15.8637 31.5051 15.9076 31.5913C15.9438 31.5704 15.959 31.5405 15.953 31.5005C15.9759 31.3262 16.0213 31.3262 16.0892 31.5005C16.1537 31.2558 16.2521 31.0287 16.3844 30.8194C16.3926 30.6955 16.4153 30.5747 16.4525 30.4562C16.546 30.6882 16.6141 30.9302 16.6568 31.1827C16.7183 31.2367 16.7712 31.2971 16.8157 31.3643C16.8519 31.1672 16.8898 30.9702 16.9293 30.774C16.9537 30.9116 16.984 31.0478 17.0201 31.1827C17.0367 30.9238 17.067 30.6664 17.1109 30.4108C17.1561 30.6355 17.1863 30.8625 17.2017 31.0919C17.2377 30.957 17.268 30.8208 17.2925 30.6832C17.3436 30.8762 17.3739 31.0728 17.3833 31.2735C17.3739 31.0787 17.4344 30.912 17.5649 30.774C17.6064 30.9688 17.6366 31.1659 17.6558 31.3643C17.686 31.2431 17.7163 31.1223 17.7466 31.001C17.7928 31.0864 17.8306 31.1772 17.8601 31.2735C17.9264 31.0328 17.9869 30.7908 18.0417 30.547C18.0688 30.7926 18.1067 31.0346 18.1552 31.2735C18.2026 31.2226 18.2329 31.1618 18.246 31.0919C18.2539 30.8934 18.2766 30.6968 18.3142 30.5016C18.3416 30.6287 18.3795 30.7499 18.4277 30.8648C18.4961 30.8194 18.549 30.7586 18.5866 30.6832C18.6169 30.8648 18.6471 31.0464 18.6774 31.2281C18.7077 31.1373 18.7379 31.0464 18.7682 30.9556C18.7965 31.0678 18.8344 31.1736 18.8817 31.2735C18.8881 31.1581 18.9183 31.0519 18.9726 30.9556C18.9902 31.1245 19.0205 31.2912 19.0634 31.4551C19.0752 31.2848 19.1055 31.1182 19.1542 30.9556C19.2832 30.9139 19.4118 30.8685 19.5401 30.8194C19.574 30.7631 19.5891 30.7027 19.5855 30.6378C19.6593 30.6314 19.7122 30.6619 19.7445 30.7286C19.8034 30.9829 19.8488 31.2403 19.8807 31.5005C19.9072 31.273 19.9753 31.061 20.085 30.8648C20.2052 30.8843 20.296 30.9447 20.3575 31.0464C20.4597 30.9847 20.5505 30.9997 20.6299 31.0919C20.635 30.3653 20.5215 29.654 20.2893 28.9577C19.8747 27.6745 19.292 26.4788 18.5412 25.3706C18.5412 25.3403 18.5563 25.3252 18.5866 25.3252C19.5431 26.299 20.2469 27.4342 20.698 28.7307C20.7796 28.9665 20.8326 29.2086 20.8569 29.4572C20.847 29.5106 20.8621 29.556 20.9023 29.5934C20.9475 29.3684 20.9626 29.1414 20.9477 28.9123C20.9622 27.836 21.0682 26.769 21.2656 25.7112C20.7616 24.6346 20.1713 23.6129 19.4947 22.6462C19.5023 22.6311 19.5098 22.6159 19.5174 22.6008C20.2063 23.2894 20.8269 24.031 21.3791 24.8257C21.4648 24.3798 21.548 23.9333 21.6288 23.4862C21.4949 23.2056 21.3965 22.9105 21.3337 22.6008C21.1586 21.3115 21.431 20.1309 22.151 19.0591C22.6865 18.4965 22.9817 18.5949 23.0364 19.3542C22.9091 20.6897 22.5686 21.9687 22.0148 23.1911C21.9652 23.2751 21.9046 23.3508 21.8332 23.4181C21.7863 23.7506 21.7485 24.0835 21.7197 24.4171Z" fill="#252122"/>
<path fill-rule="evenodd" clip-rule="evenodd" d="M20.9477 28.9123C20.9625 29.1414 20.9474 29.3684 20.9022 29.5934C20.862 29.556 20.8469 29.5106 20.8568 29.4572C20.8871 29.2756 20.9174 29.094 20.9477 28.9123Z" fill="#858384"/>
<path fill-rule="evenodd" clip-rule="evenodd" d="M8.86956 30.774C8.83928 30.8194 8.80903 30.8648 8.77875 30.9102C8.68694 30.5601 8.51289 30.2574 8.25657 30.0021C8.32014 30.1898 8.41095 30.3714 8.52901 30.547C8.56665 30.7754 8.55907 31.0024 8.50631 31.2281C8.42521 31.086 8.36469 30.9348 8.32468 30.774C8.29303 30.9502 8.26275 31.1241 8.23387 31.2962C8.17738 31.3171 8.13956 31.2944 8.12035 31.2281C8.09788 31.1386 8.09029 31.0478 8.09765 30.9556C8.09765 30.8952 8.06736 30.8648 8.00684 30.8648C8.04021 30.133 8.29748 29.4973 8.77875 28.9577C8.91824 29.1307 8.99393 29.3274 9.00578 29.548C8.92682 29.9529 8.88141 30.3615 8.86956 30.774Z" fill="#F6F6F6"/>
<path fill-rule="evenodd" clip-rule="evenodd" d="M21.0839 29.8659C21.0458 29.8504 21.0307 29.8201 21.0385 29.7751C21.1686 28.5917 21.32 27.4112 21.4926 26.2334C21.6579 26.5175 21.779 26.8202 21.8558 27.1415C21.4697 28.0123 21.2124 28.9205 21.0839 29.8659Z" fill="#EFEEEE"/>
<path fill-rule="evenodd" clip-rule="evenodd" d="M18.5865 25.3252C18.5563 25.3252 18.5411 25.3403 18.5411 25.3706C18.4782 25.3218 18.4253 25.2613 18.3822 25.189C18.3519 25.1587 18.3519 25.1284 18.3822 25.0981C18.4597 25.1679 18.5278 25.2436 18.5865 25.3252Z" fill="#747373"/>
<path fill-rule="evenodd" clip-rule="evenodd" d="M21.7196 24.4171C21.7222 24.6546 21.6919 24.8816 21.6288 25.0982C21.6263 24.8607 21.6566 24.6336 21.7196 24.4171Z" fill="#BBB9BA"/>
<path fill-rule="evenodd" clip-rule="evenodd" d="M23.3088 28.8669C23.2952 28.9831 23.3102 29.0891 23.3543 29.1848C23.3034 29.4856 23.258 29.7883 23.218 30.0929C23.1917 29.6761 23.2221 29.2675 23.3088 28.8669Z" fill="#BFBFBF"/>
<path fill-rule="evenodd" clip-rule="evenodd" d="M28.6667 29.4572C28.6817 29.4572 28.6971 29.4572 28.7121 29.4572C28.6331 29.5817 28.5273 29.6726 28.3943 29.7296C28.4701 29.6237 28.5609 29.5329 28.6667 29.4572Z" fill="#6C6B6C"/>
<path fill-rule="evenodd" clip-rule="evenodd" d="M8.96032 30.9102C8.9452 30.9102 8.93004 30.9102 8.91492 30.9102C8.94234 30.4666 9.00287 30.0277 9.09654 29.5934C9.18985 29.7672 9.2655 29.9489 9.32358 30.1383C9.14118 30.3669 9.02008 30.6241 8.96032 30.9102Z" fill="#E5E4E4"/>
<path fill-rule="evenodd" clip-rule="evenodd" d="M5.82715 29.7751C5.96623 29.8455 6.08728 29.9439 6.1904 30.0702C6.16012 30.1005 6.12987 30.1005 6.09959 30.0702C5.99715 29.9756 5.90634 29.8772 5.82715 29.7751Z" fill="#868686"/>
<path fill-rule="evenodd" clip-rule="evenodd" d="M28.3944 29.7297C28.3317 29.8465 28.2409 29.9146 28.1219 29.934C28.1951 29.8374 28.2859 29.7693 28.3944 29.7297Z" fill="#919090"/>
<path fill-rule="evenodd" clip-rule="evenodd" d="M9.32355 30.2745C9.40827 30.3846 9.45368 30.5133 9.45977 30.6605C9.41454 30.9243 9.37672 31.189 9.34625 31.4551C9.33149 31.268 9.29362 31.0864 9.23273 30.9102C9.1737 31.1118 9.10559 31.3089 9.0284 31.5005C8.97982 31.0542 9.07821 30.6455 9.32355 30.2745Z" fill="#ECECEC"/>
<path fill-rule="evenodd" clip-rule="evenodd" d="M21.0384 29.7751C21.0306 29.8201 21.0458 29.8504 21.0838 29.8659C21.0595 30.062 21.0368 30.2587 21.0157 30.4562C21.0006 30.441 20.9854 30.4259 20.9703 30.4108C20.962 30.1906 20.9847 29.9788 21.0384 29.7751Z" fill="#807F7F"/>
<path fill-rule="evenodd" clip-rule="evenodd" d="M9.73221 30.0475C9.73975 30.2298 9.73217 30.4114 9.70951 30.5924C9.65556 30.5442 9.63286 30.4835 9.6414 30.4108C9.67168 30.2897 9.70192 30.1686 9.73221 30.0475Z" fill="#A9A8A8"/>
<path fill-rule="evenodd" clip-rule="evenodd" d="M7.77966 29.9113C7.76544 30.0721 7.78061 30.2235 7.82506 30.3654C7.8143 30.424 7.82942 30.4694 7.87047 30.5016C7.80853 30.9234 7.74801 30.9234 7.68884 30.5016C7.71913 30.3048 7.74937 30.108 7.77966 29.9113Z" fill="#666465"/>
<path fill-rule="evenodd" clip-rule="evenodd" d="M28.4398 31.001C28.4093 30.8952 28.3794 30.789 28.3489 30.6832C28.339 30.6296 28.3539 30.5842 28.3943 30.547C28.4393 30.6954 28.4543 30.8467 28.4398 31.001Z" fill="#7E7C7D"/>
<path fill-rule="evenodd" clip-rule="evenodd" d="M13.8188 30.4107C13.8216 30.3861 13.8367 30.371 13.8643 30.3653C13.9088 30.4827 13.9239 30.6037 13.9097 30.7286C13.8794 30.6228 13.8491 30.5167 13.8188 30.4107Z" fill="#7F7D7E"/>
<path fill-rule="evenodd" clip-rule="evenodd" d="M14.2728 30.4561C14.2426 30.547 14.2123 30.6378 14.182 30.7286C14.1681 30.6187 14.1832 30.5126 14.2274 30.4107C14.255 30.4164 14.2701 30.4315 14.2728 30.4561Z" fill="#7F7E7E"/>
<path fill-rule="evenodd" clip-rule="evenodd" d="M11.0489 31.001C11.0186 30.9556 10.9884 30.9102 10.9581 30.8648C10.9451 30.7835 10.9603 30.7081 11.0035 30.6378C11.048 30.7554 11.0631 30.8761 11.0489 31.001Z" fill="#636162"/>
<path fill-rule="evenodd" clip-rule="evenodd" d="M11.4122 30.9102C11.3819 30.9556 11.3517 31.001 11.3214 31.0464C11.3066 30.8476 11.3218 30.6505 11.3668 30.4561C11.4116 30.6046 11.4267 30.7558 11.4122 30.9102Z" fill="#585657"/>
<path fill-rule="evenodd" clip-rule="evenodd" d="M9.82297 30.3653C9.82297 30.3956 9.83809 30.4107 9.86838 30.4107C9.82578 30.621 9.78796 30.8326 9.75486 31.0464C9.72979 30.8089 9.7525 30.5819 9.82297 30.3653Z" fill="#848283"/>
<path fill-rule="evenodd" clip-rule="evenodd" d="M23.899 30.1837C23.8727 30.5292 23.9031 30.8621 23.9898 31.1826C23.9444 31.1826 23.899 31.1826 23.8536 31.1826C23.8391 30.8412 23.8541 30.5083 23.899 30.1837Z" fill="#969495"/>
<path fill-rule="evenodd" clip-rule="evenodd" d="M21.4925 30.2745C21.4781 30.4803 21.4932 30.6773 21.5379 30.8648C21.5043 30.997 21.4816 31.1332 21.4698 31.2735C21.4325 30.9325 21.4401 30.5992 21.4925 30.2745Z" fill="#BBB9BA"/>
<path fill-rule="evenodd" clip-rule="evenodd" d="M26.3056 30.6378C26.2752 30.7436 26.2452 30.8498 26.2148 30.9556C26.2002 30.8162 26.2157 30.68 26.2602 30.547C26.2965 30.5679 26.3115 30.5978 26.3056 30.6378Z" fill="#666465"/>
<path fill-rule="evenodd" clip-rule="evenodd" d="M30.5739 30.7286C30.5766 30.7041 30.5916 30.6886 30.6193 30.6832C30.6638 30.8008 30.6787 30.9216 30.6647 31.0464C30.6342 30.9407 30.6043 30.8344 30.5739 30.7286Z" fill="#888687"/>
<path fill-rule="evenodd" clip-rule="evenodd" d="M10.595 30.7286C10.6092 30.8535 10.5941 30.9743 10.5496 31.0919C10.522 31.0864 10.5069 31.071 10.5042 31.0465C10.5344 30.9407 10.5647 30.8344 10.595 30.7286Z" fill="#747272"/>
<path fill-rule="evenodd" clip-rule="evenodd" d="M28.0765 30.774C28.0793 30.7495 28.0942 30.7341 28.1219 30.7286C28.1664 30.8462 28.1814 30.967 28.1674 31.0919C28.1369 30.9861 28.107 30.8798 28.0765 30.774Z" fill="#6E6C6D"/>
<path fill-rule="evenodd" clip-rule="evenodd" d="M6.05421 30.774C6.02392 30.8952 5.99368 31.016 5.96339 31.1373C5.949 30.9979 5.96412 30.8616 6.0088 30.7286C6.03636 30.7341 6.05148 30.7495 6.05421 30.774Z" fill="#807E7F"/>
<path fill-rule="evenodd" clip-rule="evenodd" d="M8.8695 30.774C8.85406 30.8671 8.86918 30.9125 8.9149 30.9102C8.93002 30.9102 8.94519 30.9102 8.96031 30.9102C8.94469 31.0492 8.9144 31.1854 8.8695 31.3189C8.8354 31.2789 8.81269 31.2335 8.80139 31.1827C8.79294 31.298 8.77024 31.4038 8.73328 31.5005C8.73328 31.3793 8.73328 31.2585 8.73328 31.1373C8.77646 31.0728 8.79158 30.997 8.77868 30.9102C8.80897 30.8648 8.83921 30.8194 8.8695 30.774Z" fill="#565455"/>
<path fill-rule="evenodd" clip-rule="evenodd" d="M10.9583 31.001C10.9723 31.1109 10.9571 31.2171 10.9129 31.3189C10.8766 31.298 10.8615 31.268 10.8675 31.228C10.8978 31.1522 10.928 31.0768 10.9583 31.001Z" fill="#9A9899"/>
<path fill-rule="evenodd" clip-rule="evenodd" d="M26.4419 30.8194C26.5014 30.9642 26.5014 31.1154 26.4419 31.2734C26.4142 31.268 26.3992 31.2526 26.3965 31.228C26.441 31.1014 26.456 30.9651 26.4419 30.8194Z" fill="#828081"/>
<path fill-rule="evenodd" clip-rule="evenodd" d="M8.73327 31.1373C8.73327 31.2585 8.73327 31.3793 8.73327 31.5005C8.74004 31.5482 8.7325 31.5936 8.71057 31.6367C8.66148 31.4111 8.64636 31.184 8.66516 30.9556C8.70108 31.0119 8.72378 31.0728 8.73327 31.1373Z" fill="#E8E7E7"/>
<path fill-rule="evenodd" clip-rule="evenodd" d="M28.7122 31.001C28.7258 31.0964 28.7108 31.1872 28.6668 31.2734C28.6304 31.2526 28.6155 31.2226 28.6214 31.1826C28.6518 31.1222 28.6818 31.0614 28.7122 31.001Z" fill="#939192"/>
<path fill-rule="evenodd" clip-rule="evenodd" d="M25.9425 31.0464C25.9452 31.0219 25.9602 31.0065 25.9879 31.001C26.032 31.1027 26.0474 31.209 26.0333 31.3189C26.0029 31.228 25.9729 31.1372 25.9425 31.0464Z" fill="#656364"/>
<path fill-rule="evenodd" clip-rule="evenodd" d="M34.5243 31.5913C34.4938 31.5155 34.4639 31.4401 34.4334 31.3643C34.4198 31.2689 34.4348 31.1781 34.4789 31.0918C34.5238 31.2558 34.5388 31.4219 34.5243 31.5913Z" fill="#514F50"/>
<path fill-rule="evenodd" clip-rule="evenodd" d="M5.14619 31.1373C5.16072 31.2916 5.1456 31.4428 5.10079 31.5913C5.05756 31.5209 5.04244 31.4456 5.05538 31.3643C5.08566 31.2885 5.11591 31.2131 5.14619 31.1373Z" fill="#A7A7A7"/>
<path fill-rule="evenodd" clip-rule="evenodd" d="M21.5834 31.1827C21.6136 31.2585 21.6439 31.3339 21.6742 31.4097C21.6809 31.4574 21.6734 31.5028 21.6515 31.5459C21.589 31.4351 21.5663 31.3143 21.5834 31.1827Z" fill="#8E8C8D"/>
<path fill-rule="evenodd" clip-rule="evenodd" d="M11.049 31.1373C11.0793 31.2131 11.1095 31.2885 11.1398 31.3643C11.1497 31.4179 11.1346 31.4633 11.0944 31.5005C11.0499 31.3829 11.0348 31.2621 11.049 31.1373Z" fill="#9B999A"/>
<path fill-rule="evenodd" clip-rule="evenodd" d="M13.728 31.3643C13.728 31.4401 13.728 31.5155 13.728 31.5913C13.6758 31.5781 13.6456 31.5405 13.6372 31.4778C13.6456 31.4151 13.6758 31.3774 13.728 31.3643Z" fill="#9F9D9E"/>
<path fill-rule="evenodd" clip-rule="evenodd" d="M13.9097 31.3643C13.9618 31.3774 13.9921 31.4151 14.0005 31.4778C14.0085 31.5849 13.9782 31.6077 13.9097 31.5459C13.9097 31.4855 13.9097 31.4247 13.9097 31.3643Z" fill="#8A898A"/>
<path fill-rule="evenodd" clip-rule="evenodd" d="M26.7144 31.4097C26.7788 31.3665 26.8547 31.3516 26.9414 31.3643C26.9132 31.6435 26.8379 31.6585 26.7144 31.4097Z" fill="#E8E7E8"/>
<path fill-rule="evenodd" clip-rule="evenodd" d="M2.1039 31.2281C2.11789 31.338 2.10272 31.4442 2.0585 31.5459C2.01827 31.5087 2.00315 31.4633 2.01309 31.4097C2.04338 31.3493 2.07362 31.2885 2.1039 31.2281Z" fill="#A4A2A3"/>
<path fill-rule="evenodd" clip-rule="evenodd" d="M7.55276 31.1827C7.56715 31.3221 7.55203 31.4583 7.50735 31.5913C7.46712 31.5541 7.452 31.5087 7.46194 31.4551C7.49223 31.3643 7.52247 31.2735 7.55276 31.1827Z" fill="#908E8F"/>
<path fill-rule="evenodd" clip-rule="evenodd" d="M10.3225 31.1373C10.3403 31.2835 10.3176 31.4197 10.2544 31.5459C10.2324 31.5028 10.2249 31.4574 10.2316 31.4097C10.2619 31.3189 10.2922 31.2281 10.3225 31.1373Z" fill="#A6A5A6"/>
<path fill-rule="evenodd" clip-rule="evenodd" d="M15.8621 31.3188C15.8924 31.3792 15.9226 31.4401 15.9529 31.5005C15.9589 31.5404 15.9438 31.5704 15.9075 31.5913C15.8637 31.505 15.8485 31.4142 15.8621 31.3188Z" fill="#898889"/>
<path fill-rule="evenodd" clip-rule="evenodd" d="M24.1715 31.3188C24.1852 31.4142 24.1702 31.505 24.1261 31.5913C24.0898 31.5704 24.0748 31.5404 24.0807 31.5005C24.1111 31.4401 24.1411 31.3792 24.1715 31.3188Z" fill="#A7A5A6"/>
<path fill-rule="evenodd" clip-rule="evenodd" d="M34.0702 31.3643C34.1006 31.2585 34.1306 31.1523 34.161 31.0465C34.1465 31.2008 34.1614 31.352 34.2064 31.5005C34.2341 31.2853 34.2722 31.0732 34.3199 30.8648C34.3276 31.1082 34.3503 31.3507 34.388 31.5913C34.4312 31.521 34.4466 31.4456 34.4334 31.3643C34.4639 31.4401 34.4938 31.5155 34.5242 31.5913C34.5242 31.6821 34.5242 31.773 34.5242 31.8638C34.0852 31.8638 33.6465 31.8638 33.2075 31.8638C33.2061 31.6045 33.2288 31.347 33.2756 31.0919C33.3705 31.0201 33.4386 30.9293 33.4799 30.8194C33.6002 31.1845 33.691 31.1691 33.7523 30.774C33.79 31.0147 33.8127 31.2571 33.8204 31.5005C33.9517 31.5614 34.0121 31.6676 34.0021 31.8184C34.0398 31.669 34.0625 31.5173 34.0702 31.3643Z" fill="#242122"/>
<path fill-rule="evenodd" clip-rule="evenodd" d="M34.161 31.0464C34.1306 31.1522 34.1006 31.2585 34.0702 31.3643C34.0561 31.2394 34.0711 31.1186 34.1156 31.001C34.1433 31.0065 34.1583 31.0219 34.161 31.0464Z" fill="#6F6D6E"/>
<path fill-rule="evenodd" clip-rule="evenodd" d="M8.00671 30.8648C8.06723 30.8648 8.09752 30.8952 8.09752 30.9556C8.02333 31.1799 7.97792 31.4219 7.9613 31.6821C7.94618 31.6444 7.93101 31.6063 7.91589 31.5686C7.94055 31.3266 7.97084 31.0923 8.00671 30.8648Z" fill="#9E9D9D"/>
<path fill-rule="evenodd" clip-rule="evenodd" d="M2.37634 31.1827C2.39073 31.3221 2.37561 31.4583 2.33093 31.5913C2.30337 31.5859 2.28825 31.5704 2.28552 31.5459C2.31581 31.4247 2.34605 31.3039 2.37634 31.1827Z" fill="#8C8B8C"/>
<path fill-rule="evenodd" clip-rule="evenodd" d="M35.3416 31.6821C35.3416 31.7425 35.3416 31.8033 35.3416 31.8637C35.2254 31.8774 35.1196 31.8624 35.0238 31.8183C35.0597 31.5159 35.0974 31.2131 35.1373 30.9102C35.1478 31.0955 35.1782 31.2771 35.2281 31.4551C35.2472 31.402 35.2776 31.3565 35.3189 31.3189C35.3416 31.4392 35.3489 31.56 35.3416 31.6821Z" fill="#262223"/>
<path fill-rule="evenodd" clip-rule="evenodd" d="M29.6203 31.3643C29.6508 31.4097 29.6807 31.4551 29.7112 31.5005C29.7184 31.5777 29.7107 31.6535 29.6885 31.7275C29.6263 31.6167 29.6035 31.496 29.6203 31.3643Z" fill="#9D9C9D"/>
<path fill-rule="evenodd" clip-rule="evenodd" d="M1.37737 31.773C1.24442 31.8329 1.09308 31.8633 0.923304 31.8638C0.763564 31.8638 0.612224 31.8488 0.469238 31.8184C0.532308 31.6921 0.570132 31.5559 0.582755 31.4097C0.624302 31.4474 0.654543 31.4928 0.673568 31.5459C0.844615 31.3648 0.935428 31.4102 0.946008 31.6822C1.05875 31.6072 1.14198 31.5092 1.19574 31.387C1.23879 31.3652 1.2842 31.3575 1.33196 31.3643C1.35299 31.4996 1.36811 31.6358 1.37737 31.773Z" fill="#262223"/>
<path fill-rule="evenodd" clip-rule="evenodd" d="M34.8874 31.5913C34.8874 31.6822 34.8874 31.773 34.8874 31.8638C34.8148 31.876 34.7544 31.8606 34.7058 31.8184C34.7667 31.6445 34.8198 31.4628 34.8647 31.2735C34.8874 31.3784 34.8947 31.4842 34.8874 31.5913Z" fill="#292627"/>
<path fill-rule="evenodd" clip-rule="evenodd" d="M1.7407 31.7729C1.67631 31.8551 1.5855 31.8851 1.46826 31.8637C1.46826 31.7275 1.46826 31.5913 1.46826 31.4551C1.46826 31.4097 1.46826 31.3643 1.46826 31.3189C1.56916 31.3043 1.65243 31.3343 1.718 31.4097C1.74057 31.53 1.74815 31.6508 1.7407 31.7729Z" fill="#272425"/>
<path fill-rule="evenodd" clip-rule="evenodd" d="M34.8874 31.5913C34.9242 31.6726 34.9469 31.7634 34.9555 31.8637C34.9728 31.8383 34.9955 31.8233 35.0237 31.8183C35.1195 31.8624 35.2253 31.8774 35.3415 31.8637C35.3415 31.8034 35.3415 31.7425 35.3415 31.6821C35.3846 31.7466 35.3996 31.8224 35.3869 31.9092C35.2321 31.8978 35.0809 31.9128 34.9328 31.9546C34.8402 31.93 34.7494 31.8996 34.6604 31.8637C34.6658 31.8361 34.6813 31.8211 34.7058 31.8183C34.7544 31.8606 34.8148 31.876 34.8874 31.8637C34.8874 31.7729 34.8874 31.6821 34.8874 31.5913Z" fill="#ADACAC"/>
<path fill-rule="evenodd" clip-rule="evenodd" d="M1.46818 31.4551C1.46818 31.5913 1.46818 31.7276 1.46818 31.8638C1.58542 31.8851 1.67623 31.8552 1.74062 31.773C1.77091 31.6672 1.80115 31.5609 1.83143 31.4551C1.83143 31.5913 1.83143 31.7276 1.83143 31.8638C5.41855 31.8638 9.00568 31.8638 12.5928 31.8638C19.4341 31.8638 26.2752 31.8638 33.1166 31.8638C33.1166 31.8034 33.1166 31.7425 33.1166 31.6822C33.147 31.7425 33.177 31.8034 33.2074 31.8638C33.6465 31.8638 34.0851 31.8638 34.5242 31.8638C34.0819 31.8947 33.6356 31.9246 33.1847 31.9546C22.6569 31.9092 12.1301 31.8942 1.6044 31.9092C1.53429 31.9224 1.47377 31.9528 1.42277 32C1.09784 31.9278 0.764877 31.8824 0.423828 31.8638C0.429459 31.8361 0.444579 31.8211 0.469235 31.8184C0.61222 31.8488 0.76356 31.8638 0.923301 31.8638C1.09308 31.8633 1.24442 31.8329 1.37737 31.773C1.40765 31.6672 1.43789 31.5609 1.46818 31.4551Z" fill="#C4C6C5"/>
<path d="M51.6474 32.352C50.5807 32.352 49.5674 32.1813 48.6074 31.84C47.6474 31.4773 46.7834 30.976 46.0154 30.336C45.2687 29.6747 44.682 28.8853 44.2554 27.968C43.8287 27.0507 43.6154 26.0373 43.6154 24.928V13.344C43.6154 12.6613 43.498 12.2133 43.2634 12C43.05 11.7867 42.5487 11.6053 41.7594 11.456L39.9994 11.104V10.464H51.0714V11.104L49.3114 11.456C48.522 11.6053 48.01 11.7867 47.7754 12C47.562 12.2133 47.4554 12.6613 47.4554 13.344V24.8C47.4554 26.5707 47.946 27.9573 48.9274 28.96C49.9087 29.9413 51.306 30.432 53.1194 30.432C54.25 30.432 55.2314 30.1973 56.0634 29.728C56.8954 29.2587 57.5354 28.608 57.9834 27.776C58.4527 26.9227 58.6874 25.9413 58.6874 24.832V13.44C58.6874 12.8427 58.5487 12.416 58.2714 12.16C58.0154 11.8827 57.5354 11.68 56.8314 11.552L54.6554 11.104V10.464H63.5194V11.104L61.6314 11.52C60.9274 11.648 60.4367 11.84 60.1594 12.096C59.9034 12.352 59.7754 12.7893 59.7754 13.408V28.512C59.3914 28.512 59.05 28.6507 58.7514 28.928C58.474 29.2053 58.1434 29.536 57.7594 29.92C57.418 30.2827 57.002 30.656 56.5114 31.04C56.0207 31.4027 55.3807 31.712 54.5914 31.968C53.8234 32.224 52.842 32.352 51.6474 32.352ZM62.2591 32V31.488L63.4111 31.104C63.7098 31.0187 63.9231 30.88 64.0511 30.688C64.2004 30.4747 64.2751 30.2187 64.2751 29.92V12.576C64.2751 12.128 64.2111 11.8293 64.0831 11.68C63.9551 11.5093 63.7524 11.392 63.4751 11.328L62.2591 11.008V10.56C63.3044 10.3893 64.2324 10.2187 65.0431 10.048C65.8538 9.87733 66.6751 9.61067 67.5071 9.248L67.8271 9.472C67.6564 9.81333 67.5391 10.2293 67.4751 10.72C67.4111 11.2107 67.3791 11.776 67.3791 12.416V30.08C67.3791 30.3787 67.4538 30.6133 67.6031 30.784C67.7738 30.9333 67.9764 31.04 68.2111 31.104L69.3631 31.488V32H62.2591ZM68.1029 32V31.488L69.2549 31.104C69.8309 30.912 70.1189 30.5173 70.1189 29.92V20.928C70.1189 20.5013 70.0442 20.2133 69.8949 20.064C69.7669 19.8933 69.5642 19.7653 69.2869 19.68L68.1029 19.392V18.912C69.1482 18.7413 70.0655 18.5707 70.8549 18.4C71.6655 18.2293 72.4869 17.9733 73.3189 17.632L73.6389 17.856C73.4682 18.176 73.3509 18.592 73.2869 19.104C73.2442 19.5947 73.2229 20.16 73.2229 20.8V30.08C73.2229 30.3573 73.3082 30.5813 73.4789 30.752C73.6495 30.9227 73.8309 31.04 74.0229 31.104L75.1749 31.488V32H68.1029ZM71.6229 14.336C71.0255 14.336 70.5135 14.1333 70.0869 13.728C69.6815 13.3013 69.4789 12.7893 69.4789 12.192C69.4789 11.5947 69.6815 11.0933 70.0869 10.688C70.5135 10.2613 71.0255 10.048 71.6229 10.048C72.2202 10.048 72.7215 10.2613 73.1269 10.688C73.5535 11.0933 73.7669 11.5947 73.7669 12.192C73.7669 12.7893 73.5535 13.3013 73.1269 13.728C72.7215 14.1333 72.2202 14.336 71.6229 14.336ZM77.9289 32.224C77.1822 32.224 76.4995 32.0107 75.8809 31.584C75.2622 31.1573 74.7715 30.6027 74.4089 29.92C74.0462 29.2373 73.8649 28.5013 73.8649 27.712C73.8649 27.3493 73.8969 27.0933 73.9609 26.944C74.0462 26.7733 74.1742 26.656 74.3449 26.592L80.7449 24.224C81.1715 24.0747 81.4595 23.904 81.6089 23.712C81.7582 23.4987 81.8329 23.2107 81.8329 22.848V21.888C81.8329 20.9493 81.6089 20.1813 81.1609 19.584C80.7129 18.9867 80.0195 18.688 79.0809 18.688C78.4622 18.688 77.9609 18.8267 77.5769 19.104C77.1929 19.36 77.0009 19.68 77.0009 20.064C77.0009 20.2133 77.0329 20.352 77.0969 20.48C77.1822 20.608 77.2782 20.736 77.3849 20.864C77.5342 21.056 77.6515 21.2587 77.7369 21.472C77.8435 21.6853 77.8969 21.9093 77.8969 22.144C77.8969 22.6133 77.7262 22.9867 77.3849 23.264C77.0649 23.5413 76.6489 23.68 76.1369 23.68C75.6035 23.68 75.1875 23.5307 74.8889 23.232C74.5902 22.912 74.4409 22.4747 74.4409 21.92C74.4409 21.152 74.7075 20.4587 75.2409 19.84C75.7742 19.2 76.4569 18.6987 77.2889 18.336C78.1209 17.952 78.9742 17.76 79.8489 17.76C80.8515 17.76 81.7262 17.9413 82.4729 18.304C83.2409 18.6453 83.8382 19.1467 84.2649 19.808C84.7129 20.448 84.9369 21.2373 84.9369 22.176V29.024C84.9369 29.4507 84.9795 29.8133 85.0649 30.112C85.1715 30.4107 85.4169 30.56 85.8009 30.56C86.1849 30.56 86.6542 30.464 87.2089 30.272V30.944C86.8035 31.2 86.2702 31.4773 85.6089 31.776C84.9689 32.0533 84.4035 32.192 83.9129 32.192C83.4649 32.192 83.1022 32.096 82.8249 31.904C82.5475 31.712 82.3449 31.4133 82.2169 31.008C82.0889 30.6027 82.0249 30.1227 82.0249 29.568V29.12L82.6649 29.728C82.2169 30.112 81.7262 30.496 81.1929 30.88C80.6595 31.264 80.1155 31.584 79.5609 31.84C79.0062 32.096 78.4622 32.224 77.9289 32.224ZM79.3689 30.464C79.7102 30.464 80.0409 30.3893 80.3609 30.24C80.7022 30.0907 81.0542 29.888 81.4169 29.632C81.6942 29.4187 81.8329 29.0773 81.8329 28.608V25.12C81.8329 25.056 81.8115 25.0133 81.7689 24.992C81.7262 24.9493 81.6729 24.9493 81.6089 24.992L77.3209 26.56C77.1929 26.6027 77.0969 26.6987 77.0329 26.848C76.9902 26.9973 76.9689 27.2427 76.9689 27.584C76.9689 28.0533 77.0862 28.512 77.3209 28.96C77.5555 29.3867 77.8542 29.7493 78.2169 30.048C78.6009 30.3253 78.9849 30.464 79.3689 30.464ZM94.8509 32V31.488L96.0029 31.104C96.3015 31.0187 96.5149 30.88 96.6429 30.688C96.7922 30.4747 96.8669 30.2187 96.8669 29.92V23.04C96.8669 22.08 96.6002 21.344 96.0669 20.832C95.5549 20.2987 94.8189 20.032 93.8589 20.032C92.8775 20.032 92.1095 20.3413 91.5549 20.96C91.0002 21.5787 90.7229 22.336 90.7229 23.232L90.0829 19.968H90.6589C91.2562 19.6907 91.8962 19.3707 92.5789 19.008C93.2615 18.6453 93.9015 18.2933 94.4989 17.952C94.7335 17.824 94.9682 17.76 95.2029 17.76C96.7175 17.76 97.8909 18.144 98.7229 18.912C99.5549 19.68 99.9709 20.7893 99.9709 22.24V30.08C99.9709 30.3787 100.046 30.6133 100.195 30.784C100.366 30.9333 100.568 31.04 100.803 31.104L101.955 31.488V32H94.8509ZM85.6029 32V31.488L86.7549 31.104C87.0535 31.0187 87.2669 30.88 87.3949 30.688C87.5442 30.4747 87.6189 30.2187 87.6189 29.92V20.96C87.6189 20.512 87.5442 20.2133 87.3949 20.064C87.2669 19.8933 87.0642 19.776 86.7869 19.712L85.6029 19.392V18.912C86.3069 18.8053 86.9255 18.6987 87.4589 18.592C88.0135 18.4853 88.5362 18.3573 89.0269 18.208C89.5389 18.0373 90.0722 17.8453 90.6269 17.632L90.9149 17.856C90.7869 18.112 90.6802 18.4533 90.5949 18.88C90.5309 19.3067 90.4989 19.7547 90.4989 20.224V20.544L90.7229 21.152V30.08C90.7229 30.3787 90.7975 30.6133 90.9469 30.784C91.1175 30.9333 91.3202 31.04 91.5549 31.104L92.7069 31.488V32H85.6029ZM104.929 32.224C104.182 32.224 103.5 32.0107 102.881 31.584C102.262 31.1573 101.772 30.6027 101.409 29.92C101.046 29.2373 100.865 28.5013 100.865 27.712C100.865 27.3493 100.897 27.0933 100.961 26.944C101.046 26.7733 101.174 26.656 101.345 26.592L107.745 24.224C108.172 24.0747 108.46 23.904 108.609 23.712C108.758 23.4987 108.833 23.2107 108.833 22.848V21.888C108.833 20.9493 108.609 20.1813 108.161 19.584C107.713 18.9867 107.02 18.688 106.081 18.688C105.462 18.688 104.961 18.8267 104.577 19.104C104.193 19.36 104.001 19.68 104.001 20.064C104.001 20.2133 104.033 20.352 104.097 20.48C104.182 20.608 104.278 20.736 104.385 20.864C104.534 21.056 104.652 21.2587 104.737 21.472C104.844 21.6853 104.897 21.9093 104.897 22.144C104.897 22.6133 104.726 22.9867 104.385 23.264C104.065 23.5413 103.649 23.68 103.137 23.68C102.604 23.68 102.188 23.5307 101.889 23.232C101.59 22.912 101.441 22.4747 101.441 21.92C101.441 21.152 101.708 20.4587 102.241 19.84C102.774 19.2 103.457 18.6987 104.289 18.336C105.121 17.952 105.974 17.76 106.849 17.76C107.852 17.76 108.726 17.9413 109.473 18.304C110.241 18.6453 110.838 19.1467 111.265 19.808C111.713 20.448 111.937 21.2373 111.937 22.176V29.024C111.937 29.4507 111.98 29.8133 112.065 30.112C112.172 30.4107 112.417 30.56 112.801 30.56C113.185 30.56 113.654 30.464 114.209 30.272V30.944C113.804 31.2 113.27 31.4773 112.609 31.776C111.969 32.0533 111.404 32.192 110.913 32.192C110.465 32.192 110.102 32.096 109.825 31.904C109.548 31.712 109.345 31.4133 109.217 31.008C109.089 30.6027 109.025 30.1227 109.025 29.568V29.12L109.665 29.728C109.217 30.112 108.726 30.496 108.193 30.88C107.66 31.264 107.116 31.584 106.561 31.84C106.006 32.096 105.462 32.224 104.929 32.224ZM106.369 30.464C106.71 30.464 107.041 30.3893 107.361 30.24C107.702 30.0907 108.054 29.888 108.417 29.632C108.694 29.4187 108.833 29.0773 108.833 28.608V25.12C108.833 25.056 108.812 25.0133 108.769 24.992C108.726 24.9493 108.673 24.9493 108.609 24.992L104.321 26.56C104.193 26.6027 104.097 26.6987 104.033 26.848C103.99 26.9973 103.969 27.2427 103.969 27.584C103.969 28.0533 104.086 28.512 104.321 28.96C104.556 29.3867 104.854 29.7493 105.217 30.048C105.601 30.3253 105.985 30.464 106.369 30.464Z" fill="#33323D"/>
</svg>
