<svg width="226" height="204" viewBox="0 0 226 204" fill="none" xmlns="http://www.w3.org/2000/svg">
<path fill-rule="evenodd" clip-rule="evenodd" d="M183.04 187.79C182.945 187.79 182.846 187.79 182.751 187.79C211.055 157.552 220.173 122.237 210.105 81.8449C200.449 51.1547 181.104 28.9141 152.067 15.1227C127.841 4.66251 103.043 3.11879 77.674 10.4912C43.6356 22.0476 20.6229 44.7708 8.63608 78.6607C-0.387186 109.043 2.79695 138.086 18.1885 165.79C23.5344 174.544 29.8546 182.553 37.1486 189.816C16.2499 171.86 4.04398 149.088 0.531004 121.502C-3.017 80.5127 11.2149 47.2721 43.2274 21.7804C73.2489 0.309217 106.055 -5.28734 141.646 4.99135C173.268 15.5795 195.895 36.0833 209.526 66.5031C222.483 99.3489 220.552 131.287 203.737 162.317C198.15 171.836 191.252 180.327 183.04 187.79Z" fill="#242021"/>
<path fill-rule="evenodd" clip-rule="evenodd" d="M83.1739 174.474C83.2202 174.966 83.1721 175.449 83.0291 175.922C82.8361 176.308 82.6433 176.308 82.4502 175.922C82.3463 176.803 82.1532 176.9 81.8713 176.211C81.7749 176.501 81.6782 176.79 81.5818 177.08C81.4854 176.983 81.3887 176.886 81.2923 176.79C80.9702 177.155 80.9218 177.493 81.1476 177.803C80.9557 178.243 80.6662 178.58 80.2792 178.816C79.0218 174.89 78.3948 170.837 78.3977 166.659C79.1126 165.57 79.2574 164.412 78.8319 163.185C76.4354 162.18 74.1196 161.022 71.8847 159.712C71.2907 158.847 70.9529 157.882 70.8715 156.817C70.6304 152.954 70.6787 149.094 71.0163 145.238C73.0883 144.251 75.1145 143.189 77.0951 142.054C77.1915 142.15 77.2881 142.247 77.3845 142.343C75.9702 146.776 75.4396 151.311 75.7925 155.948C76.9333 156.832 78.1392 157.604 79.4108 158.264C79.4282 158.421 79.5246 158.518 79.7003 158.554C79.9839 157.805 80.0803 157.033 79.9897 156.238C80.2448 150.45 80.2928 144.661 80.1345 138.87C72.0039 143.104 63.8505 147.301 55.6745 151.462C47.689 156.974 39.7286 162.522 31.7935 168.106C34.8937 163.57 38.2225 159.131 41.7801 154.791C38.8903 156.442 36.044 158.372 33.2408 160.58C33.1925 160.484 33.1444 160.387 33.0961 160.29C37.3483 153.134 41.5937 145.994 45.8326 138.87C47.4418 136.806 48.7444 134.587 49.7404 132.212C48.0754 134.292 46.4833 136.415 44.9642 138.58C41.6788 142.399 38.543 146.355 35.5565 150.449C40.494 139.338 46.3797 128.435 53.214 117.739C58.9724 108.889 65.9679 101.122 74.2004 94.4367C83.9667 87.0648 94.9665 83.784 107.2 84.5948C109.738 85.1885 112.053 86.25 114.147 87.7789C114.919 87.972 115.691 87.972 116.463 87.7789C119.851 83.8844 121.057 79.3977 120.081 74.3187C119.15 71.9367 117.654 69.9588 115.594 68.3846C111.246 66.0631 107.724 62.8306 105.029 58.6875C104.178 56.953 103.358 55.2162 102.568 53.4771C100.496 56.1801 98.7113 59.0748 97.213 62.1611C96.9956 60.6929 97.092 59.2456 97.5025 57.8191C98.3362 55.5772 99.3012 53.4545 100.397 51.4508C96.954 55.1499 94.1557 59.2989 92.0026 63.8979C93.6908 54.7412 97.9364 46.6361 104.739 39.5827C106.536 34.9639 109.672 31.6351 114.147 29.5961C117.634 28.6897 120.915 29.1723 123.989 31.0434C125.423 31.9943 126.773 33.0558 128.041 34.2275C138.12 34.1065 148.153 34.6855 158.146 35.9643C158.241 36.0607 158.34 36.1574 158.435 36.2538C151.676 37.4811 144.923 38.7354 138.173 40.0169C131.528 41.3629 125.256 43.6786 119.357 46.9641C113.153 51.1205 113.25 55.1731 119.647 59.1217C122.777 60.5415 125.768 62.1819 128.62 64.0426C130.811 66.1566 132.21 68.7135 132.817 71.7135C133.844 86.674 129.984 100.183 121.239 112.239C116.347 117.905 110.606 122.488 104.016 125.989C99.9685 128.061 95.8195 129.894 91.5684 131.488C90.2658 132.984 88.9632 134.48 87.6606 135.975C86.1612 144.253 84.9069 152.551 83.8975 160.869C92.2206 165.489 100.567 170.073 108.936 174.619C116.058 176.153 122.041 179.627 126.883 185.04C126.787 185.088 126.69 185.136 126.594 185.185C123.973 182.904 121.078 181.023 117.91 179.54C117.62 179.347 117.331 179.347 117.042 179.54C120.961 181.725 124.097 184.668 126.449 188.369C123.337 184.964 119.67 182.359 115.449 180.553C114.32 181.94 113.259 183.388 112.265 184.895C112.337 183.132 112.771 181.444 113.568 179.829C113.526 179.606 113.43 179.413 113.278 179.251C103.305 174.529 93.3182 169.849 83.3186 165.211C82.9093 166.768 82.6682 168.36 82.5949 169.988C82.8804 171.471 83.0731 172.967 83.1739 174.474Z" fill="#231F20"/>
<path fill-rule="evenodd" clip-rule="evenodd" d="M96.1999 88.5026C98.722 88.4297 101.231 88.5744 103.726 88.9368C91.697 90.7066 81.2761 95.724 72.4636 103.989C66.3098 109.9 60.6652 116.22 55.5298 122.949C59.6781 113.465 65.7086 105.312 73.6215 98.4892C80.2132 93.0218 87.7394 89.6929 96.1999 88.5026Z" fill="#F5F5F5"/>
<path fill-rule="evenodd" clip-rule="evenodd" d="M94.1736 107.029C86.598 117.911 76.5633 125.968 64.0691 131.199C62.2634 131.962 60.4302 132.541 58.5692 132.936C72.098 126.56 83.9662 117.924 94.1736 107.029Z" fill="#EFEEEE"/>
<path fill-rule="evenodd" clip-rule="evenodd" d="M83.1739 123.818C83.0775 123.818 82.9808 123.818 82.8844 123.818C92.6942 117.144 101.04 108.942 107.923 99.2129C102.065 109.751 93.8153 117.952 83.1739 123.818Z" fill="#E0E0E0"/>
<path fill-rule="evenodd" clip-rule="evenodd" d="M82.8844 123.818C82.9808 123.818 83.0775 123.818 83.1739 123.818C82.7579 124.172 82.2754 124.462 81.7266 124.686C81.3804 124.586 81.3804 124.441 81.7266 124.252C82.087 124.023 82.4728 123.878 82.8844 123.818Z" fill="#7E7D7E"/>
<path fill-rule="evenodd" clip-rule="evenodd" d="M45.8326 138.87C45.5747 138.693 45.2853 138.597 44.9642 138.58C46.4834 136.415 48.0754 134.292 49.7404 132.212C48.7444 134.587 47.4418 136.806 45.8326 138.87Z" fill="#E1E0E0"/>
<path fill-rule="evenodd" clip-rule="evenodd" d="M155.541 155.37C156.293 156.776 156.968 158.223 157.567 159.712C153.051 167.952 150.157 176.732 148.883 186.053C148.602 185.443 148.507 184.767 148.593 184.027C148.724 181.513 148.915 179.004 149.172 176.501C150.18 167.665 151.193 158.789 152.212 149.87C153.329 151.721 154.438 153.555 155.541 155.37Z" fill="#F6F6F6"/>
<path fill-rule="evenodd" clip-rule="evenodd" d="M79.9898 156.238C80.0804 157.033 79.984 157.805 79.7003 158.554C79.5246 158.518 79.4282 158.421 79.4108 158.264C79.6039 157.589 79.7967 156.913 79.9898 156.238Z" fill="#9D9B9C"/>
<path fill-rule="evenodd" clip-rule="evenodd" d="M147.725 175.632C147.447 177.536 147.352 179.466 147.436 181.422C147.242 182.194 147.051 182.965 146.857 183.737C146.49 181.016 145.815 178.411 144.83 175.922C144.543 174.528 144.109 173.178 143.528 171.869C143.335 171.387 143.335 170.904 143.528 170.422C144.953 167.859 146.594 165.447 148.449 163.185C148.055 167.315 147.815 171.464 147.725 175.632Z" fill="#F8F8F8"/>
<path fill-rule="evenodd" clip-rule="evenodd" d="M139.331 200.526C139.152 200.495 139.007 200.399 138.896 200.237C138.745 197.171 138.504 197.171 138.173 200.237C137.98 199.753 137.787 199.273 137.594 198.79C137.681 198.049 137.584 197.374 137.304 196.763C137.019 195.568 136.923 194.312 137.015 193C137.296 188.031 138.261 183.207 139.909 178.527C140.067 177.921 140.308 177.342 140.633 176.79C142.636 181.763 143.939 186.925 144.541 192.277C144.337 193.777 144.096 195.273 143.817 196.763C143.6 195.629 143.214 194.568 142.659 193.579C142.357 195.498 142.164 197.426 142.08 199.369C141.788 197.513 141.402 195.681 140.923 193.869C140.602 195.394 140.409 196.937 140.344 198.5C140.056 197.067 139.863 195.62 139.765 194.158C139.375 196.26 139.23 198.381 139.331 200.526Z" fill="#F6F5F6"/>
<path fill-rule="evenodd" clip-rule="evenodd" d="M54.2272 180.843C54.0341 180.843 53.9377 180.939 53.9377 181.132C53.4833 180.734 53.2421 180.252 53.2141 179.685C53.6124 180.034 53.9499 180.419 54.2272 180.843Z" fill="#949394"/>
<path fill-rule="evenodd" clip-rule="evenodd" d="M50.7536 183.158C50.7536 182.965 50.6572 182.869 50.4641 182.869C50.6578 181.515 50.8989 180.164 51.1878 178.816C51.3476 180.329 51.2028 181.776 50.7536 183.158Z" fill="#7A7879"/>
<path fill-rule="evenodd" clip-rule="evenodd" d="M178.988 196.184C179.181 196.859 179.372 197.536 179.566 198.211C179.482 198.729 179.581 199.209 179.856 199.658C180.391 198.367 180.681 197.018 180.724 195.605C180.918 196.28 181.109 196.957 181.303 197.632C181.254 198.697 181.303 199.759 181.448 200.816C181.749 199.583 181.992 198.329 182.172 197.053C182.452 197.603 182.548 198.182 182.461 198.79C182.423 199.044 182.519 199.235 182.751 199.369C183.031 198.819 183.127 198.24 183.04 197.632C182.947 196.552 183.043 195.493 183.33 194.448C183.497 196.303 183.738 198.138 184.053 199.947C184.247 199.754 184.438 199.562 184.632 199.369C184.728 198.306 184.826 197.247 184.922 196.184C185.127 195.759 185.466 195.565 185.935 195.605C185.897 196.228 186.042 196.807 186.369 197.342C186.45 195.883 186.835 195.689 187.527 196.763C187.747 198.014 187.941 199.267 188.106 200.526C188.169 199.982 188.36 199.499 188.685 199.079C188.824 199.354 188.873 199.644 188.829 199.947C188.722 200.787 188.867 201.557 189.264 202.263C189.405 201.791 189.455 201.308 189.408 200.816C189.458 199.073 189.602 197.336 189.843 195.605C190.175 196.535 190.369 197.499 190.421 198.5C190.734 197.588 191.119 196.72 191.579 195.895C191.863 196.346 192.103 196.83 192.303 197.342C192.934 196.717 193.322 195.944 193.461 195.027C193.669 195.77 194.008 196.445 194.474 197.053C194.703 196.694 194.847 196.306 194.908 195.895C195.102 196.569 195.293 197.247 195.487 197.921C195.395 199.001 195.49 200.06 195.777 201.105C196.251 200.402 196.59 199.632 196.79 198.79C197.082 198.546 197.421 198.451 197.803 198.5C197.754 199.565 197.803 200.628 197.948 201.684C198.295 200.463 198.489 199.209 198.527 197.921C198.767 197.632 199.01 197.342 199.25 197.053C199.444 197.632 199.635 198.211 199.829 198.79C200.069 197.632 200.313 196.474 200.553 195.316C201.039 197.334 201.473 199.36 201.855 201.395C202.269 201.013 202.559 200.529 202.724 199.947C203.109 200.332 203.497 200.332 203.882 199.947C204.076 200.911 204.267 201.878 204.461 202.842C204.652 201.285 204.892 199.742 205.184 198.211C206.229 199.007 206.808 200.066 206.921 201.395C207.176 199.609 207.61 197.872 208.224 196.184C210.207 197.583 211.17 199.513 211.118 201.974C211.118 202.359 211.118 202.747 211.118 203.132C167.504 203.132 123.892 203.132 80.2792 203.132C80.6694 202.932 81.0072 202.642 81.2923 202.263C81.3887 202.457 81.4854 202.648 81.5818 202.842C83.7299 202.605 85.9009 202.46 88.0948 202.408C87.8054 202.312 87.5159 202.214 87.2264 202.118C87.4441 201.925 87.5408 201.684 87.5159 201.395C87.5159 200.911 87.5159 200.431 87.5159 199.947C87.7035 200.526 87.9446 201.105 88.2396 201.684C88.2948 201.045 88.4396 200.466 88.6738 199.947C88.6738 200.332 88.6738 200.72 88.6738 201.105C88.685 201.418 88.7817 201.707 88.9632 201.974C88.7701 202.069 88.5774 202.168 88.3843 202.263C88.4734 202.498 88.6182 202.689 88.8185 202.842C110.324 202.888 131.889 202.839 153.514 202.697C132.673 202.602 111.831 202.503 90.9895 202.408C106.524 202.312 122.059 202.214 137.594 202.118C138.603 202.026 139.182 201.493 139.331 200.526C139.23 198.381 139.375 196.26 139.765 194.158C139.863 195.62 140.056 197.067 140.344 198.5C140.409 196.937 140.602 195.394 140.923 193.869C141.402 195.681 141.788 197.513 142.08 199.369C142.164 197.426 142.357 195.498 142.659 193.579C143.214 194.568 143.6 195.629 143.817 196.763C144.096 195.273 144.337 193.777 144.541 192.277C143.939 186.925 142.636 181.763 140.633 176.79C140.308 177.342 140.067 177.921 139.909 178.527C139.439 178.486 139.102 178.679 138.896 179.106C138.604 178.864 138.266 178.767 137.883 178.816C137.807 178.389 137.904 178.003 138.173 177.658C138.665 177.748 139.148 177.603 139.62 177.224C139.331 177.128 139.041 177.031 138.752 176.935C139.106 175.901 139.588 174.937 140.199 174.04C139.524 173.233 139.572 172.412 140.344 171.58C140.646 171.905 140.839 172.291 140.923 172.738C141.286 172.891 141.72 172.891 142.225 172.738C142.425 172.89 142.57 173.083 142.659 173.316C142.924 172.982 143.165 173.031 143.383 173.461C143.287 173.558 143.19 173.654 143.094 173.751C143.383 173.992 143.673 174.233 143.962 174.474C143.556 174.863 143.653 175.104 144.251 175.198C143.93 175.723 144.124 175.964 144.83 175.922C145.815 178.411 146.49 181.016 146.857 183.737C146.778 184.296 146.923 184.778 147.291 185.185C147.436 183.934 147.485 182.68 147.436 181.422C147.352 179.466 147.447 177.536 147.725 175.632C147.986 175.314 148.226 175.314 148.449 175.632C148.544 175.343 148.643 175.053 148.738 174.764C149.065 175.298 149.21 175.877 149.172 176.501C148.915 179.004 148.724 181.513 148.593 184.027C148.041 186.58 147.847 189.186 148.015 191.842C148.269 189.9 148.559 187.971 148.883 186.053C150.157 176.732 153.051 167.952 157.567 159.712C156.968 158.223 156.293 156.776 155.541 155.37C156.206 155.554 156.835 155.844 157.422 156.238C157.726 155.944 158.065 155.895 158.435 156.093C158.768 157.138 159.252 157.283 159.883 156.527C162.691 152.556 166.069 149.372 170.014 146.975C166.668 150.804 163.773 154.953 161.33 159.422C165.933 166.615 168.972 174.43 170.448 182.869C171.172 164.104 173.438 145.53 177.251 127.146C175.824 124.896 174.909 122.435 174.501 119.765C173.334 110.757 174.492 102.073 177.974 93.713C179.387 90.4672 181.367 87.6209 183.908 85.1737C186.262 83.1614 188.143 83.4992 189.553 86.1869C190.005 88.2864 190.1 90.409 189.843 92.5552C188.407 103.975 185.223 114.878 180.29 125.265C179.176 126.472 178.597 127.92 178.553 129.607C176.133 149.251 173.673 168.886 171.172 188.514C171.221 189.044 171.267 189.575 171.317 190.106C172.362 179.664 175.161 169.725 179.711 160.29C182.562 154.736 186.47 150.056 191.435 146.251C191.883 145.878 192.367 145.685 192.882 145.672C183.057 157.656 177.413 171.405 175.948 186.921C175.607 192.03 175.462 197.143 175.514 202.263C175.803 202.263 176.093 202.263 176.382 202.263C176.322 200.318 176.466 198.387 176.817 196.474C177.063 196.005 177.352 195.906 177.685 196.184C178.218 197.061 178.507 198.028 178.553 199.079C178.794 198.127 178.938 197.16 178.988 196.184Z" fill="#242021"/>
<path fill-rule="evenodd" clip-rule="evenodd" d="M147.436 181.422C147.485 182.68 147.436 183.934 147.291 185.185C146.923 184.778 146.778 184.296 146.857 183.737C147.051 182.965 147.242 182.194 147.436 181.422Z" fill="#949293"/>
<path fill-rule="evenodd" clip-rule="evenodd" d="M168.567 196.474C168.656 197.403 168.561 198.271 168.277 199.079C167.791 197.884 167.597 196.63 167.698 195.316C167.736 195.061 167.64 194.87 167.409 194.737C167.125 195.585 167.027 196.454 167.119 197.342C167.29 198.81 167.001 200.162 166.251 201.395C165.97 200.845 165.875 200.266 165.962 199.658C166.051 198.957 165.953 198.28 165.672 197.632C165.495 197.666 165.4 197.765 165.383 197.921C165.475 198.572 165.33 199.151 164.948 199.658C164.899 198.584 164.754 197.522 164.514 196.474C164.3 197.927 164.057 199.374 163.791 200.816C163.663 199.916 163.275 199.143 162.633 198.5C162.537 197.727 162.439 196.957 162.343 196.184C161.559 195.834 161.075 196.124 160.896 197.053C160.847 196.413 160.653 195.834 160.317 195.316C160.178 196.483 159.984 197.64 159.738 198.79C159.709 197.212 159.515 195.669 159.159 194.158C158.965 195.316 158.774 196.474 158.58 197.632C158.542 196.344 158.349 195.09 158.001 193.869C157.77 195.603 157.576 197.339 157.422 199.079C157.228 198.5 157.037 197.921 156.843 197.342C156.615 198.567 156.23 199.725 155.685 200.816C155.512 198.74 155.124 196.714 154.528 194.737C154.345 196.375 154.2 198.017 154.093 199.658C153.899 200.043 153.708 200.431 153.514 200.816C153.32 200.141 153.129 199.464 152.935 198.79C152.383 196.746 152.189 194.624 152.357 192.421C152.357 191.254 152.455 190.096 152.646 188.948C153.048 187.567 153.242 186.12 153.225 184.606C154.177 177.231 156.25 170.187 159.449 163.475C164.575 173.889 167.614 184.889 168.567 196.474Z" fill="#FAFAFA"/>
<path fill-rule="evenodd" clip-rule="evenodd" d="M153.225 184.606C153.242 186.12 153.048 187.567 152.646 188.948C152.629 187.433 152.823 185.986 153.225 184.606Z" fill="#B4B2B3"/>
<path fill-rule="evenodd" clip-rule="evenodd" d="M50.4641 182.869C50.6572 182.869 50.7536 182.965 50.7536 183.158C50.4216 186.628 50.1321 190.102 49.8852 193.579C49.6018 192.675 49.5051 191.71 49.5957 190.684C49.6953 188.057 49.9848 185.452 50.4641 182.869Z" fill="#353334"/>
<path fill-rule="evenodd" clip-rule="evenodd" d="M138.462 155.659C138.06 157.039 137.867 158.487 137.883 160.001C139.163 162.947 140.61 165.841 142.225 168.685C143.968 166.315 146.042 164.289 148.449 162.606C149.126 157.631 149.85 152.662 150.62 147.699C149.757 145.688 148.599 143.855 147.146 142.199C147.34 142.006 147.531 142.006 147.725 142.199C148.631 143.395 149.644 144.505 150.764 145.528C151.621 140.488 152.588 135.471 153.659 130.475C153.3 136.171 152.915 141.864 152.501 147.554C154.973 150.586 157.434 153.577 159.883 156.527C159.252 157.283 158.768 157.138 158.435 156.093C158.065 155.895 157.726 155.944 157.422 156.238C156.835 155.844 156.206 155.554 155.541 155.37C154.438 153.555 153.329 151.721 152.212 149.87C151.193 158.789 150.18 167.666 149.172 176.501C149.21 175.877 149.065 175.298 148.738 174.764C148.643 175.053 148.544 175.343 148.449 175.632C148.226 175.314 147.986 175.314 147.725 175.632C147.815 171.464 148.055 167.315 148.449 163.185C146.594 165.447 144.953 167.859 143.528 170.422C143.335 170.904 143.335 171.387 143.528 171.869C144.109 173.178 144.543 174.528 144.83 175.922C144.124 175.964 143.93 175.723 144.251 175.198C143.653 175.104 143.556 174.863 143.962 174.474C143.673 174.233 143.383 173.992 143.094 173.751C143.19 173.654 143.287 173.558 143.383 173.461C143.165 173.031 142.924 172.982 142.659 173.316C142.57 173.083 142.426 172.89 142.225 172.738C141.72 172.891 141.286 172.891 140.923 172.738C140.839 172.291 140.646 171.905 140.344 171.58C139.573 172.412 139.524 173.233 140.199 174.04C139.588 174.937 139.106 175.901 138.752 176.935C139.041 177.031 139.331 177.128 139.62 177.224C139.148 177.603 138.665 177.748 138.173 177.658C137.904 178.003 137.807 178.389 137.883 178.816C138.266 178.767 138.604 178.864 138.896 179.106C139.102 178.679 139.439 178.486 139.909 178.527C138.261 183.207 137.296 188.031 137.015 193C136.68 195.07 136.632 197.195 136.87 199.369C136.945 198.474 137.09 197.606 137.304 196.763C137.584 197.374 137.681 198.049 137.594 198.79C137.485 199.629 137.63 200.399 138.028 201.105C138.168 200.83 138.216 200.541 138.173 200.237C138.504 197.171 138.745 197.171 138.896 200.237C139.007 200.399 139.152 200.495 139.331 200.526C139.182 201.493 138.603 202.026 137.594 202.118C122.059 202.214 106.524 202.312 90.9895 202.408C111.831 202.503 132.673 202.602 153.514 202.697C131.889 202.839 110.324 202.888 88.8185 202.842C88.6182 202.689 88.4735 202.498 88.3843 202.263C88.5774 202.168 88.7702 202.069 88.9632 201.974C88.7818 201.707 88.6851 201.418 88.6738 201.105C89.1106 201.499 89.3037 201.354 89.2527 200.671C89.1995 200.272 89.0064 200.031 88.6738 199.947C88.4396 200.466 88.2949 201.045 88.2396 201.684C87.9446 201.105 87.7035 200.526 87.5159 199.947C87.1833 200.031 86.9902 200.272 86.937 200.671C86.9902 201.071 87.1833 201.311 87.5159 201.395C87.5408 201.684 87.4441 201.925 87.2264 202.118C87.5159 202.214 87.8054 202.312 88.0948 202.408C85.901 202.46 83.73 202.605 81.5818 202.842C81.4854 202.648 81.3888 202.457 81.2924 202.263C81.0072 202.642 80.6694 202.932 80.2792 203.132C57.4113 203.132 34.5434 203.132 11.6755 203.132C11.6755 202.263 11.6755 201.395 11.6755 200.526C11.5838 199.638 11.6802 198.769 11.965 197.921C12.6846 198.523 12.9741 199.293 12.8334 200.237C12.77 200.579 12.8664 200.868 13.1229 201.105C13.4048 200.457 13.5015 199.78 13.4123 199.079C13.3489 198.737 13.4453 198.448 13.7018 198.211C13.9311 199.215 14.2205 200.182 14.5702 201.105C14.5876 201.262 14.684 201.36 14.8597 201.395C15.1445 200.547 15.2409 199.678 15.1491 198.79C15.1014 197.82 15.1497 196.856 15.2939 195.895C15.3903 195.99 15.4869 196.089 15.5833 196.184C16.0207 198.08 16.4069 200.008 16.7412 201.974C16.7939 201.183 16.9386 200.414 17.1754 199.658C17.3685 199.852 17.5613 200.043 17.7543 200.237C17.9474 199.079 18.1402 197.921 18.3333 196.763C18.5813 197.122 18.7741 197.507 18.9122 197.921C19.151 198.179 19.4405 198.274 19.7806 198.211C19.7464 196.894 20.3254 196.315 21.5174 196.474C21.782 197.099 22.1198 197.678 22.5305 198.211C22.589 197.701 22.7337 197.221 22.9647 196.763C23.5341 197.105 23.92 196.911 24.1226 196.184C24.5423 197.499 24.7835 198.85 24.8463 200.237C24.9548 198.874 25.1479 197.522 25.4252 196.184C25.983 198.373 26.4172 200.593 26.7278 202.842C26.9678 201.308 27.1125 199.762 27.162 198.211C27.4269 198.451 27.6197 198.74 27.741 199.079C27.8909 198.35 28.277 197.771 28.8988 197.342C29.2222 197.762 29.4152 198.245 29.4778 198.79C29.7157 198.127 29.9088 197.452 30.0567 196.763C30.4133 197.574 30.6064 198.442 30.6356 199.369C30.8768 199.658 31.1182 199.947 31.3593 200.237C31.5524 199.273 31.7452 198.306 31.9382 197.342C32.2231 198.19 32.3195 199.059 32.2277 199.947C32.1452 200.466 32.2416 200.946 32.5172 201.395C32.8029 200.448 32.8993 199.484 32.8066 198.5C32.6903 195.209 32.9797 195.113 33.675 198.211C33.8195 197.423 34.157 196.749 34.6882 196.184C35.7751 198.069 36.7882 200 37.7276 201.974C38.0144 200.83 38.1108 199.672 38.017 198.5C38.2101 197.727 38.4029 196.957 38.596 196.184C38.9477 197.866 39.4302 197.962 40.0433 196.474C40.4422 197.892 40.6836 199.34 40.767 200.816C41.1719 198.792 41.5578 196.766 41.9248 194.737C42.1651 196.08 42.3582 197.432 42.5038 198.79C42.6401 198.283 42.8332 197.803 43.0827 197.342C43.3563 198.387 43.5493 199.45 43.6616 200.526C44.0501 200.932 44.2915 200.836 44.3853 200.237C44.5703 199.377 44.715 198.509 44.8195 197.632C45.074 198.593 45.3154 199.557 45.5432 200.526C46.2043 200.26 46.5421 200.55 46.5563 201.395C46.8878 200.069 47.0805 198.717 47.1353 197.342C47.5223 198.364 47.667 199.424 47.5695 200.526C47.5061 200.868 47.6025 201.157 47.8589 201.395C48.1438 200.547 48.2401 199.678 48.1484 198.79C47.9287 193.041 45.9988 187.927 42.359 183.448C42.4074 183.351 42.4554 183.255 42.5038 183.158C45.725 186.321 47.896 190.084 49.0168 194.448C49.394 197.137 49.7798 197.137 50.1747 194.448C50.7898 190.322 52.623 186.849 55.6745 184.027C55.203 182.981 54.6241 182.016 53.9377 181.132C53.9377 180.939 54.0341 180.843 54.2272 180.843C55.1914 181.856 56.1082 182.917 56.9771 184.027C57.2061 182.362 57.9298 180.963 59.1481 179.83C59.4228 179.651 59.664 179.699 59.8718 179.974C59.9456 182.286 59.5114 184.505 58.5692 186.632C59.989 188.866 60.9538 191.278 61.4639 193.869C61.4095 194.333 61.5542 194.72 61.8981 195.027C62.0425 193.873 62.0909 192.715 62.0428 191.553C62.3285 185.745 63.1005 180.004 64.3585 174.33C62.3181 168.834 62.9454 163.671 66.2401 158.843C66.7741 158.384 67.3531 157.998 67.9769 157.685C68.5521 157.875 68.9379 158.26 69.1348 158.843C69.2213 161.509 68.8354 164.114 67.9769 166.659C67.081 169.638 66.0198 172.532 64.7927 175.343C64.0016 181.412 63.278 187.491 62.6217 193.579C62.1725 194.96 62.0278 196.407 62.1875 197.921C62.3986 196.558 62.6397 195.209 62.9112 193.869C63.7292 188.563 66.1897 184.221 70.2926 180.843C69.4193 182.285 68.4542 183.732 67.3979 185.185C65.9842 187.786 64.9711 190.536 64.3585 193.434C64.9685 195.655 65.2579 197.924 65.2269 200.237C65.1838 200.541 65.2319 200.83 65.3717 201.105C65.7746 200.301 65.9193 199.432 65.8059 198.5C65.8745 197.588 66.1156 196.72 66.5295 195.895C66.8124 196.543 66.9571 197.218 66.9637 197.921C66.9811 198.078 67.0775 198.176 67.2532 198.211C67.5369 197.461 67.6333 196.691 67.5427 195.895C67.4964 195.403 67.5444 194.919 67.6874 194.448C68.4846 195.901 69.0155 197.444 69.2795 199.079C69.2416 199.334 69.338 199.525 69.569 199.658C69.8509 199.01 69.9476 198.332 69.8584 197.632C69.8584 197.342 69.8584 197.053 69.8584 196.763C70.0515 197.053 70.2443 197.342 70.4374 197.632C70.4374 197.921 70.4374 198.211 70.4374 198.5C70.3468 199.296 70.4431 200.066 70.7268 200.816C70.9833 200.579 71.0797 200.289 71.0163 199.947C70.9237 198.963 71.0201 197.999 71.3058 197.053C71.4988 198.211 71.6916 199.369 71.8847 200.526C72.1695 199.678 72.2659 198.81 72.1742 197.921C72.3672 197.632 72.56 197.342 72.7531 197.053C72.6966 198.332 72.8414 199.586 73.1873 200.816C73.3442 198.402 73.4889 195.99 73.6215 193.579C73.911 193.579 74.2004 193.579 74.4899 193.579C74.2844 195.44 74.6222 197.177 75.503 198.79C75.5569 198.095 75.7016 197.42 75.9372 196.763C76.148 197.548 76.3891 198.321 76.6609 199.079C76.7553 197.444 77.1414 195.901 77.8188 194.448C77.9221 196.674 78.1152 198.894 78.3977 201.105C78.6947 199.577 78.8878 198.031 78.9766 196.474C79.0979 196.135 79.2907 195.846 79.5556 195.605C79.8581 197.525 80.0508 199.452 80.1345 201.395C80.3571 199.082 80.5499 196.766 80.7134 194.448C80.9065 194.255 81.0993 194.062 81.2924 193.869C81.625 195.423 82.0108 196.969 82.4502 198.5C82.7397 197.921 83.0292 197.342 83.3186 196.763C83.5117 195.122 83.5117 193.483 83.3186 191.842C82.1663 187.523 81.1531 183.181 80.2792 178.816C80.6663 178.58 80.9557 178.243 81.1476 177.803C80.9219 177.493 80.9702 177.155 81.2924 176.79C81.3888 176.886 81.4854 176.983 81.5818 177.08C81.6782 176.79 81.7749 176.501 81.8713 176.211C82.1532 176.9 82.3463 176.803 82.4502 175.922C82.6433 176.308 82.8361 176.308 83.0292 175.922C83.1722 175.449 83.2202 174.966 83.1739 174.474C84.2331 182.353 85.2945 190.265 86.358 198.211C86.7439 198.211 87.1301 198.211 87.5159 198.211C87.3758 196.688 87.5689 195.241 88.0948 193.869C88.2879 194.544 88.4807 195.22 88.6738 195.895C88.6738 196.763 88.6738 197.632 88.6738 198.5C89.2527 198.405 89.8316 198.306 90.4106 198.211C90.4106 197.438 90.4106 196.668 90.4106 195.895C90.6037 195.316 90.7964 194.737 90.9895 194.158C90.8457 195.218 91.1832 196.086 92.0027 196.763C92.2406 197.426 92.4337 198.101 92.5816 198.79C93.9024 192.937 94.7225 193.034 95.0421 199.079C95.3315 199.079 95.621 199.079 95.9105 199.079C95.8641 198.587 95.9122 198.104 96.0552 197.632C96.2124 198.248 96.4535 198.827 96.7789 199.369C96.9719 197.826 97.1647 196.28 97.3578 194.737C97.7338 194.908 97.9749 195.197 98.0815 195.605C98.0496 196.96 98.3391 198.214 98.9499 199.369C99.5001 197.574 99.8863 195.742 100.108 193.869C100.228 193.736 100.372 193.64 100.542 193.579C100.974 195.582 101.167 197.609 101.121 199.658C101.034 200.266 101.131 200.845 101.41 201.395C101.641 201.262 101.738 201.071 101.7 200.816C101.846 199.704 102.135 199.704 102.568 200.816C102.979 199.256 103.607 197.808 104.45 196.474C104.502 195.684 104.647 194.914 104.884 194.158C105.48 195.637 105.914 197.18 106.187 198.79C106.578 199.134 106.916 199.519 107.2 199.947C107.43 198.691 107.672 197.435 107.923 196.184C108.079 197.061 108.272 197.93 108.502 198.79C108.609 197.14 108.802 195.498 109.081 193.869C109.369 195.302 109.562 196.749 109.66 198.211C109.89 197.351 110.083 196.483 110.239 195.605C110.565 196.836 110.758 198.089 110.818 199.369C110.758 198.127 111.144 197.064 111.976 196.184C112.24 197.426 112.433 198.682 112.555 199.947C112.748 199.175 112.941 198.405 113.134 197.632C113.428 198.176 113.67 198.755 113.857 199.369C114.28 197.834 114.666 196.291 115.015 194.737C115.188 196.303 115.43 197.846 115.739 199.369C116.041 199.044 116.234 198.656 116.318 198.211C116.368 196.946 116.512 195.692 116.752 194.448C116.927 195.258 117.168 196.031 117.476 196.763C117.912 196.474 118.25 196.086 118.489 195.605C118.682 196.763 118.875 197.921 119.068 199.079C119.261 198.5 119.454 197.921 119.647 197.342C119.827 198.057 120.069 198.732 120.37 199.369C120.411 198.633 120.604 197.956 120.949 197.342C121.062 198.419 121.255 199.481 121.528 200.526C121.604 199.441 121.797 198.379 122.107 197.342C122.93 197.076 123.75 196.786 124.568 196.474C124.784 196.115 124.88 195.73 124.857 195.316C125.327 195.275 125.665 195.469 125.87 195.895C126.246 197.516 126.536 199.157 126.739 200.816C126.907 199.366 127.342 198.014 128.041 196.763C128.808 196.888 129.386 197.273 129.778 197.921C130.43 197.528 131.009 197.623 131.515 198.211C131.547 193.579 130.824 189.044 129.344 184.606C126.701 176.425 122.986 168.802 118.199 161.738C118.199 161.545 118.296 161.448 118.489 161.448C124.587 167.656 129.073 174.893 131.949 183.158C132.47 184.661 132.807 186.205 132.962 187.79C132.899 188.13 132.995 188.419 133.252 188.658C133.539 187.224 133.636 185.776 133.541 184.316C133.634 177.455 134.309 170.652 135.567 163.909C132.355 157.046 128.592 150.533 124.278 144.37C124.327 144.273 124.375 144.177 124.423 144.08C128.815 148.47 132.771 153.198 136.291 158.264C136.837 155.421 137.368 152.575 137.883 149.725C137.03 147.936 136.402 146.054 136.002 144.08C134.885 135.861 136.622 128.335 141.212 121.502C144.626 117.915 146.508 118.542 146.857 123.383C146.045 131.897 143.874 140.051 140.344 147.843C140.027 148.379 139.641 148.861 139.186 149.291C138.887 151.41 138.646 153.533 138.462 155.659Z" fill="#252122"/>
<path fill-rule="evenodd" clip-rule="evenodd" d="M133.541 184.316C133.636 185.776 133.539 187.224 133.252 188.658C132.995 188.419 132.899 188.13 132.962 187.79C133.155 186.632 133.348 185.474 133.541 184.316Z" fill="#858384"/>
<path fill-rule="evenodd" clip-rule="evenodd" d="M56.5429 196.184C56.3498 196.474 56.157 196.763 55.964 197.053C55.3787 194.821 54.2691 192.891 52.6351 191.263C53.0404 192.46 53.6193 193.618 54.3719 194.737C54.6119 196.193 54.5635 197.64 54.2272 199.079C53.7102 198.173 53.3243 197.209 53.0693 196.184C52.8675 197.307 52.6745 198.416 52.4904 199.513C52.1303 199.646 51.8891 199.502 51.7667 199.079C51.6234 198.509 51.5751 197.93 51.622 197.342C51.622 196.957 51.4289 196.763 51.043 196.763C51.2558 192.098 52.8959 188.045 55.964 184.606C56.8532 185.708 57.3358 186.962 57.4113 188.369C56.9079 190.95 56.6185 193.555 56.5429 196.184Z" fill="#F6F6F6"/>
<path fill-rule="evenodd" clip-rule="evenodd" d="M134.41 190.395C134.167 190.296 134.07 190.103 134.12 189.816C134.95 182.272 135.914 174.746 137.015 167.238C138.069 169.049 138.841 170.979 139.33 173.027C136.869 178.579 135.229 184.368 134.41 190.395Z" fill="#EFEEEE"/>
<path fill-rule="evenodd" clip-rule="evenodd" d="M118.489 161.448C118.296 161.448 118.199 161.545 118.199 161.738C117.799 161.427 117.461 161.041 117.186 160.58C116.993 160.387 116.993 160.194 117.186 160.001C117.68 160.446 118.115 160.928 118.489 161.448Z" fill="#747373"/>
<path fill-rule="evenodd" clip-rule="evenodd" d="M138.462 155.659C138.478 157.173 138.285 158.621 137.883 160.001C137.867 158.487 138.06 157.039 138.462 155.659Z" fill="#BBB9BA"/>
<path fill-rule="evenodd" clip-rule="evenodd" d="M148.593 184.027C148.507 184.767 148.602 185.443 148.883 186.053C148.559 187.971 148.269 189.9 148.015 191.842C147.847 189.186 148.041 186.58 148.593 184.027Z" fill="#BFBFBF"/>
<path fill-rule="evenodd" clip-rule="evenodd" d="M182.751 187.79C182.846 187.79 182.945 187.79 183.04 187.79C182.536 188.584 181.862 189.163 181.014 189.527C181.497 188.851 182.076 188.272 182.751 187.79Z" fill="#6C6B6C"/>
<path fill-rule="evenodd" clip-rule="evenodd" d="M57.1219 197.053C57.0255 197.053 56.9288 197.053 56.8324 197.053C57.0072 194.225 57.3931 191.427 57.9903 188.658C58.5851 189.766 59.0674 190.924 59.4376 192.132C58.2748 193.589 57.5028 195.229 57.1219 197.053Z" fill="#E5E4E4"/>
<path fill-rule="evenodd" clip-rule="evenodd" d="M37.1486 189.816C38.0353 190.265 38.807 190.892 39.4644 191.698C39.2713 191.891 39.0785 191.891 38.8854 191.698C38.2324 191.095 37.6535 190.467 37.1486 189.816Z" fill="#868686"/>
<path fill-rule="evenodd" clip-rule="evenodd" d="M181.014 189.527C180.614 190.271 180.035 190.706 179.277 190.829C179.743 190.214 180.322 189.779 181.014 189.527Z" fill="#919090"/>
<path fill-rule="evenodd" clip-rule="evenodd" d="M59.4376 193C59.9778 193.702 60.2672 194.523 60.306 195.461C60.0177 197.143 59.7766 198.83 59.5824 200.526C59.4883 199.334 59.2469 198.176 58.8587 197.053C58.4824 198.338 58.0482 199.594 57.5561 200.816C57.2464 197.97 57.8736 195.365 59.4376 193Z" fill="#ECECEC"/>
<path fill-rule="evenodd" clip-rule="evenodd" d="M134.12 189.816C134.07 190.103 134.167 190.296 134.41 190.395C134.255 191.645 134.11 192.899 133.975 194.158C133.879 194.062 133.782 193.965 133.686 193.869C133.633 192.465 133.778 191.115 134.12 189.816Z" fill="#807F7F"/>
<path fill-rule="evenodd" clip-rule="evenodd" d="M62.0428 191.553C62.0908 192.715 62.0425 193.873 61.8981 195.027C61.5542 194.72 61.4094 194.333 61.4639 193.869C61.6569 193.097 61.8497 192.325 62.0428 191.553Z" fill="#A9A8A8"/>
<path fill-rule="evenodd" clip-rule="evenodd" d="M49.5957 190.684C49.5051 191.71 49.6018 192.675 49.8852 193.579C49.8166 193.953 49.913 194.242 50.1747 194.448C49.7798 197.137 49.394 197.137 49.0168 194.448C49.2099 193.193 49.4026 191.939 49.5957 190.684Z" fill="#666465"/>
<path fill-rule="evenodd" clip-rule="evenodd" d="M181.303 197.632C181.109 196.957 180.918 196.28 180.724 195.605C180.661 195.264 180.756 194.974 181.014 194.737C181.3 195.684 181.396 196.648 181.303 197.632Z" fill="#7E7C7D"/>
<path fill-rule="evenodd" clip-rule="evenodd" d="M88.0948 193.869C88.1122 193.711 88.2086 193.615 88.3843 193.579C88.668 194.328 88.7644 195.099 88.6738 195.895C88.4807 195.22 88.2879 194.544 88.0948 193.869Z" fill="#7F7D7E"/>
<path fill-rule="evenodd" clip-rule="evenodd" d="M90.9895 194.158C90.7964 194.737 90.6036 195.316 90.4106 195.895C90.3214 195.194 90.4181 194.518 90.7 193.869C90.8757 193.905 90.9721 194.001 90.9895 194.158Z" fill="#7F7E7E"/>
<path fill-rule="evenodd" clip-rule="evenodd" d="M70.4373 197.632C70.2442 197.342 70.0514 197.053 69.8584 196.763C69.7759 196.245 69.8723 195.765 70.1478 195.316C70.4315 196.066 70.5279 196.836 70.4373 197.632Z" fill="#636162"/>
<path fill-rule="evenodd" clip-rule="evenodd" d="M72.7531 197.053C72.56 197.342 72.3672 197.632 72.1741 197.921C72.0798 196.653 72.1764 195.397 72.4636 194.158C72.7493 195.105 72.8457 196.069 72.7531 197.053Z" fill="#585657"/>
<path fill-rule="evenodd" clip-rule="evenodd" d="M62.6217 193.579C62.6217 193.772 62.7181 193.869 62.9112 193.869C62.6397 195.209 62.3985 196.558 62.1875 197.921C62.0277 196.407 62.1725 194.96 62.6217 193.579Z" fill="#848283"/>
<path fill-rule="evenodd" clip-rule="evenodd" d="M152.357 192.421C152.189 194.624 152.383 196.746 152.935 198.79C152.646 198.79 152.357 198.79 152.067 198.79C151.974 196.613 152.07 194.49 152.357 192.421Z" fill="#969495"/>
<path fill-rule="evenodd" clip-rule="evenodd" d="M137.015 193C136.923 194.312 137.019 195.568 137.304 196.763C137.09 197.606 136.945 198.474 136.87 199.369C136.632 197.195 136.68 195.07 137.015 193Z" fill="#BBB9BA"/>
<path fill-rule="evenodd" clip-rule="evenodd" d="M167.698 195.316C167.504 195.99 167.313 196.668 167.119 197.342C167.027 196.454 167.125 195.585 167.409 194.737C167.64 194.87 167.736 195.061 167.698 195.316Z" fill="#666465"/>
<path fill-rule="evenodd" clip-rule="evenodd" d="M194.908 195.895C194.926 195.739 195.021 195.64 195.198 195.605C195.481 196.355 195.577 197.125 195.487 197.921C195.293 197.247 195.102 196.569 194.908 195.895Z" fill="#888687"/>
<path fill-rule="evenodd" clip-rule="evenodd" d="M67.5426 195.895C67.6333 196.691 67.5369 197.461 67.2532 198.211C67.0775 198.176 66.9811 198.077 66.9637 197.921C67.1568 197.247 67.3496 196.569 67.5426 195.895Z" fill="#747272"/>
<path fill-rule="evenodd" clip-rule="evenodd" d="M178.988 196.184C179.005 196.028 179.1 195.93 179.277 195.895C179.561 196.645 179.656 197.415 179.566 198.211C179.373 197.536 179.181 196.859 178.988 196.184Z" fill="#6E6C6D"/>
<path fill-rule="evenodd" clip-rule="evenodd" d="M38.596 196.184C38.4029 196.957 38.2101 197.727 38.017 198.5C37.9253 197.611 38.0217 196.743 38.3065 195.895C38.4822 195.93 38.5786 196.028 38.596 196.184Z" fill="#807E7F"/>
<path fill-rule="evenodd" clip-rule="evenodd" d="M56.5429 196.184C56.4445 196.778 56.5409 197.067 56.8324 197.053C56.9288 197.053 57.0254 197.053 57.1218 197.053C57.0223 197.939 56.8292 198.807 56.5429 199.658C56.3255 199.403 56.1808 199.114 56.1087 198.79C56.0549 199.525 55.9101 200.199 55.6745 200.816C55.6745 200.043 55.6745 199.273 55.6745 198.5C55.9498 198.089 56.0462 197.606 55.964 197.053C56.157 196.763 56.3498 196.474 56.5429 196.184Z" fill="#565455"/>
<path fill-rule="evenodd" clip-rule="evenodd" d="M69.8584 197.632C69.9475 198.332 69.8509 199.01 69.5689 199.658C69.3379 199.525 69.2415 199.334 69.2795 199.079C69.4725 198.596 69.6653 198.115 69.8584 197.632Z" fill="#9A9899"/>
<path fill-rule="evenodd" clip-rule="evenodd" d="M168.567 196.474C168.946 197.397 168.946 198.361 168.567 199.369C168.39 199.334 168.295 199.235 168.277 199.079C168.561 198.271 168.656 197.403 168.567 196.474Z" fill="#828081"/>
<path fill-rule="evenodd" clip-rule="evenodd" d="M55.6745 198.5C55.6745 199.273 55.6745 200.043 55.6745 200.816C55.7176 201.12 55.6696 201.409 55.5298 201.684C55.2169 200.246 55.1205 198.798 55.2403 197.342C55.4693 197.701 55.614 198.089 55.6745 198.5Z" fill="#E8E7E7"/>
<path fill-rule="evenodd" clip-rule="evenodd" d="M183.04 197.632C183.127 198.24 183.031 198.819 182.751 199.369C182.519 199.235 182.424 199.044 182.461 198.79C182.655 198.405 182.846 198.017 183.04 197.632Z" fill="#939192"/>
<path fill-rule="evenodd" clip-rule="evenodd" d="M165.383 197.921C165.4 197.765 165.495 197.666 165.672 197.632C165.953 198.28 166.051 198.957 165.962 199.658C165.768 199.079 165.577 198.5 165.383 197.921Z" fill="#656364"/>
<path fill-rule="evenodd" clip-rule="evenodd" d="M220.092 201.395C219.898 200.911 219.707 200.431 219.513 199.947C219.426 199.34 219.522 198.761 219.802 198.211C220.089 199.256 220.184 200.315 220.092 201.395Z" fill="#514F50"/>
<path fill-rule="evenodd" clip-rule="evenodd" d="M32.8066 198.5C32.8992 199.484 32.8028 200.448 32.5171 201.395C32.2415 200.946 32.1451 200.466 32.2276 199.947C32.4207 199.464 32.6135 198.984 32.8066 198.5Z" fill="#A7A7A7"/>
<path fill-rule="evenodd" clip-rule="evenodd" d="M137.594 198.79C137.787 199.273 137.98 199.754 138.173 200.237C138.216 200.541 138.168 200.83 138.028 201.105C137.63 200.399 137.485 199.629 137.594 198.79Z" fill="#8E8C8D"/>
<path fill-rule="evenodd" clip-rule="evenodd" d="M70.4373 198.5C70.6304 198.984 70.8232 199.464 71.0162 199.947C71.0796 200.289 70.9832 200.578 70.7268 200.816C70.4431 200.066 70.3467 199.296 70.4373 198.5Z" fill="#9B999A"/>
<path fill-rule="evenodd" clip-rule="evenodd" d="M87.5159 199.947C87.5159 200.431 87.5159 200.911 87.5159 201.395C87.1833 201.311 86.9902 201.071 86.937 200.671C86.9902 200.272 87.1833 200.031 87.5159 199.947Z" fill="#9F9D9E"/>
<path fill-rule="evenodd" clip-rule="evenodd" d="M88.6738 199.947C89.0064 200.031 89.1994 200.272 89.2527 200.671C89.3036 201.354 89.1106 201.499 88.6738 201.105C88.6738 200.72 88.6738 200.332 88.6738 199.947Z" fill="#8A898A"/>
<path fill-rule="evenodd" clip-rule="evenodd" d="M170.303 200.237C170.715 199.962 171.198 199.866 171.751 199.947C171.571 201.728 171.091 201.823 170.303 200.237Z" fill="#E8E7E8"/>
<path fill-rule="evenodd" clip-rule="evenodd" d="M13.4123 199.079C13.5015 199.78 13.4048 200.457 13.1228 201.105C12.8664 200.868 12.77 200.578 12.8334 200.237C13.0264 199.852 13.2192 199.464 13.4123 199.079Z" fill="#A4A2A3"/>
<path fill-rule="evenodd" clip-rule="evenodd" d="M48.1483 198.79C48.2401 199.678 48.1437 200.547 47.8589 201.395C47.6024 201.157 47.506 200.868 47.5694 200.526C47.7625 199.947 47.9553 199.369 48.1483 198.79Z" fill="#908E8F"/>
<path fill-rule="evenodd" clip-rule="evenodd" d="M65.8059 198.5C65.9194 199.432 65.7746 200.301 65.3717 201.105C65.2319 200.83 65.1838 200.541 65.227 200.237C65.42 199.658 65.6128 199.079 65.8059 198.5Z" fill="#A6A5A6"/>
<path fill-rule="evenodd" clip-rule="evenodd" d="M101.121 199.658C101.314 200.043 101.507 200.431 101.7 200.816C101.738 201.071 101.641 201.262 101.41 201.395C101.131 200.845 101.034 200.266 101.121 199.658Z" fill="#898889"/>
<path fill-rule="evenodd" clip-rule="evenodd" d="M154.093 199.658C154.18 200.266 154.085 200.845 153.804 201.395C153.572 201.262 153.477 201.071 153.514 200.816C153.708 200.431 153.899 200.043 154.093 199.658Z" fill="#A7A5A6"/>
<path fill-rule="evenodd" clip-rule="evenodd" d="M217.197 199.947C217.391 199.273 217.582 198.596 217.776 197.921C217.684 198.905 217.779 199.869 218.066 200.816C218.242 199.444 218.485 198.092 218.789 196.763C218.838 198.315 218.983 199.861 219.223 201.395C219.498 200.946 219.597 200.466 219.513 199.947C219.707 200.431 219.898 200.911 220.092 201.395C220.092 201.974 220.092 202.553 220.092 203.132C217.293 203.132 214.496 203.132 211.697 203.132C211.689 201.479 211.833 199.837 212.132 198.211C212.737 197.753 213.171 197.174 213.434 196.474C214.201 198.801 214.78 198.703 215.171 196.184C215.411 197.719 215.556 199.264 215.605 200.816C216.442 201.204 216.827 201.881 216.763 202.842C217.003 201.89 217.148 200.923 217.197 199.947Z" fill="#242122"/>
<path fill-rule="evenodd" clip-rule="evenodd" d="M217.776 197.921C217.582 198.596 217.391 199.273 217.197 199.947C217.107 199.151 217.203 198.381 217.487 197.632C217.663 197.666 217.759 197.765 217.776 197.921Z" fill="#6F6D6E"/>
<path fill-rule="evenodd" clip-rule="evenodd" d="M51.043 196.763C51.4289 196.763 51.622 196.957 51.622 197.342C51.149 198.772 50.8595 200.315 50.7536 201.974C50.6572 201.733 50.5605 201.49 50.4641 201.25C50.6213 199.707 50.8144 198.214 51.043 196.763Z" fill="#9E9D9D"/>
<path fill-rule="evenodd" clip-rule="evenodd" d="M15.1491 198.79C15.2409 199.678 15.1445 200.547 14.8597 201.395C14.684 201.36 14.5876 201.262 14.5702 201.105C14.7633 200.332 14.9561 199.562 15.1491 198.79Z" fill="#8C8B8C"/>
<path fill-rule="evenodd" clip-rule="evenodd" d="M225.302 201.974C225.302 202.359 225.302 202.747 225.302 203.132C224.561 203.218 223.887 203.123 223.276 202.842C223.505 200.914 223.745 198.984 224 197.053C224.066 198.234 224.26 199.392 224.579 200.526C224.7 200.188 224.894 199.898 225.158 199.658C225.302 200.425 225.349 201.195 225.302 201.974Z" fill="#262223"/>
<path fill-rule="evenodd" clip-rule="evenodd" d="M188.829 199.947C189.023 200.237 189.214 200.526 189.408 200.816C189.455 201.308 189.405 201.791 189.264 202.263C188.867 201.557 188.722 200.787 188.829 199.947Z" fill="#9D9C9D"/>
<path fill-rule="evenodd" clip-rule="evenodd" d="M8.78086 202.553C7.9333 202.935 6.96851 203.129 5.88619 203.132C4.86784 203.132 3.90305 203.036 2.99152 202.842C3.39359 202.037 3.63471 201.169 3.71518 200.237C3.98005 200.477 4.17283 200.767 4.29412 201.105C5.38454 199.95 5.96348 200.24 6.03092 201.974C6.74967 201.496 7.28026 200.871 7.62299 200.092C7.89741 199.953 8.18687 199.904 8.49139 199.947C8.62542 200.81 8.72181 201.679 8.78086 202.553Z" fill="#262223"/>
<path fill-rule="evenodd" clip-rule="evenodd" d="M222.408 201.395C222.408 201.974 222.408 202.553 222.408 203.132C221.944 203.21 221.559 203.111 221.25 202.842C221.638 201.733 221.976 200.576 222.263 199.369C222.408 200.037 222.454 200.712 222.408 201.395Z" fill="#292627"/>
<path fill-rule="evenodd" clip-rule="evenodd" d="M11.0965 202.553C10.6861 203.077 10.1071 203.268 9.35974 203.132C9.35974 202.263 9.35974 201.395 9.35974 200.526C9.35974 200.237 9.35974 199.947 9.35974 199.658C10.0029 199.565 10.5338 199.756 10.9518 200.237C11.0957 201.004 11.144 201.774 11.0965 202.553Z" fill="#272425"/>
<path fill-rule="evenodd" clip-rule="evenodd" d="M222.408 201.395C222.642 201.913 222.787 202.492 222.842 203.132C222.952 202.969 223.097 202.874 223.276 202.842C223.887 203.123 224.561 203.218 225.302 203.132C225.302 202.747 225.302 202.359 225.302 201.974C225.577 202.385 225.673 202.868 225.592 203.421C224.605 203.349 223.641 203.444 222.697 203.711C222.107 203.554 221.528 203.36 220.96 203.132C220.995 202.955 221.093 202.859 221.25 202.842C221.559 203.111 221.944 203.21 222.408 203.132C222.408 202.553 222.408 201.974 222.408 201.395Z" fill="#ADACAC"/>
<path fill-rule="evenodd" clip-rule="evenodd" d="M9.35977 200.526C9.35977 201.395 9.35977 202.263 9.35977 203.132C10.1072 203.268 10.6861 203.077 11.0966 202.553C11.2896 201.878 11.4824 201.201 11.6755 200.526C11.6755 201.395 11.6755 202.263 11.6755 203.132C34.5434 203.132 57.4113 203.132 80.2792 203.132C123.892 203.132 167.504 203.132 211.118 203.132C211.118 202.747 211.118 202.359 211.118 201.974C211.312 202.359 211.503 202.747 211.697 203.132C214.496 203.132 217.293 203.132 220.092 203.132C217.272 203.328 214.427 203.519 211.553 203.711C144.438 203.421 77.3295 203.326 10.2282 203.421C9.78123 203.505 9.39537 203.699 9.0703 204C6.99888 203.54 4.87621 203.25 2.70203 203.132C2.73792 202.955 2.83431 202.859 2.99149 202.842C3.90303 203.036 4.86782 203.132 5.88616 203.132C6.96848 203.129 7.93328 202.935 8.78084 202.553C8.97391 201.878 9.1667 201.201 9.35977 200.526Z" fill="#C4C6C5"/>
</svg>
